<svg width="24" height="24" viewBox="0 0 24 24" fill="none" xmlns="http://www.w3.org/2000/svg">
    <path d="M16.3385 13.0278C15.9532 13.8135 15.5951 14.5906 15.1954 15.345C14.5016 16.6566 13.787 17.9564 13.0698 19.255C12.8942 19.5724 12.6824 19.8704 12.4759 20.1711C12.1727 20.6092 11.5905 20.585 11.2821 20.135C10.4538 18.9269 9.74835 17.6454 9.08448 16.3414C8.55722 15.3046 8.05503 14.2554 7.54112 13.2121C7.51337 13.1555 7.48244 13.1001 7.44455 13.0284C6.34735 13.5414 5.30298 14.1158 4.44753 14.9904C3.94536 15.504 3.78312 16.1592 3.68173 16.8371C3.45065 18.3842 3.42718 19.9453 3.3989 21.5054C3.403 21.5329 3.40959 21.5599 3.41862 21.5862H3.68814C9.42957 21.5862 15.1715 21.5862 20.914 21.5862C21.0341 21.5824 21.1543 21.5925 21.2721 21.6164C21.6211 21.6988 21.8266 22.0011 21.7972 22.3676C21.7809 22.529 21.7095 22.6797 21.5953 22.7939C21.4812 22.9081 21.3313 22.9787 21.1712 22.9937C21.0935 22.9996 21.0155 23.0014 20.9375 22.9991H2.86097C2.23873 22.9991 1.9847 22.741 2.00071 22.1062C2.03006 20.9045 2.0322 19.7002 2.11065 18.5012C2.17557 17.6242 2.29032 16.7518 2.45432 15.8882C2.65124 14.8029 3.33004 14.0177 4.15881 13.3517C5.16049 12.5477 6.28703 11.9673 7.46748 11.4926C7.92856 11.3078 8.25409 11.4533 8.47716 11.9075C9.19973 13.3804 9.9248 14.8525 10.6524 16.3236C10.8078 16.6402 10.9892 16.9432 11.1945 17.2294V16.5354C11.1945 16.0703 11.1945 15.6047 11.1945 15.1397C11.1977 14.6881 11.479 14.3766 11.8808 14.3702C12.2827 14.3637 12.581 14.6768 12.5879 15.1246C12.5975 15.7755 12.5879 16.4276 12.5911 17.0791C12.5911 17.1211 12.5959 17.1637 12.6029 17.272C12.6674 17.1642 12.7096 17.1022 12.74 17.0381C13.5864 15.3479 14.4315 13.6569 15.2754 11.9652C15.539 11.4344 15.831 11.3002 16.3715 11.5201C17.6459 12.0379 18.8466 12.6813 19.9017 13.5877C20.8228 14.3793 21.3041 15.3919 21.4957 16.5785C21.6937 17.8033 21.627 19.0346 21.6163 20.2643C21.6131 20.6265 21.3116 20.904 20.9546 20.925C20.7901 20.9312 20.6287 20.8782 20.4994 20.7753C20.37 20.6724 20.2811 20.5265 20.2486 20.3635C20.231 20.265 20.2233 20.165 20.2256 20.065C20.2214 19.2992 20.2315 18.5335 20.2133 17.7678C20.1978 17.0996 20.0949 16.44 19.8504 15.8165C19.7497 15.5568 19.6053 15.3167 19.4235 15.1068C18.5787 14.1471 17.4778 13.5667 16.3385 13.0278Z" fill="#FF293E"/>
    <path d="M17.2406 6.22299C17.097 8.80957 15.9801 10.7129 13.6614 11.8326C13.2878 12.0137 12.8908 11.8865 12.7147 11.5363C12.5327 11.1774 12.6613 10.7651 13.045 10.5782C13.7996 10.2123 14.4437 9.71918 14.9427 9.0332C16.0319 7.53622 16.1274 5.38828 15.1503 3.92901C14.5681 3.05927 13.7275 2.59153 12.7189 2.43418C11.8058 2.29138 10.9077 2.35767 10.0629 2.77583C9.12742 3.23926 8.56868 4.02224 8.2709 5.00837C7.80341 6.56787 8.21326 7.97487 9.05697 9.28756C9.75339 10.3718 10.7289 11.1644 11.784 11.8661C12.0508 12.0428 12.3288 12.2007 12.5956 12.3758C12.9404 12.6021 13.0439 12.9923 12.8566 13.3259C12.8122 13.408 12.7518 13.4801 12.679 13.538C12.6062 13.5959 12.5226 13.6384 12.4331 13.6628C12.3437 13.6872 12.2503 13.6931 12.1585 13.6801C12.0668 13.6671 11.9786 13.6355 11.8992 13.5872C10.3399 12.6894 8.91074 11.6322 7.90534 10.0921C7.07443 8.81928 6.57546 7.43114 6.70354 5.88512C6.85617 4.03625 7.62678 2.53711 9.28005 1.60325C9.95305 1.21276 10.7153 1.00639 11.4915 1.00455C12.1127 1.00455 12.7344 0.965222 13.3518 1.11772C15.1198 1.55475 16.287 2.65458 16.906 4.36334C16.9975 4.61112 17.0661 4.86691 17.1109 5.12746C17.1728 5.50252 17.2011 5.88081 17.2406 6.22299Z" fill="#FF293E"/>
    <path d="M17.1698 17.758C17.5167 17.758 17.8636 17.7543 18.2094 17.758C18.6326 17.7634 18.9389 18.0593 18.9415 18.4586C18.9425 18.552 18.9249 18.6446 18.8898 18.7311C18.8548 18.8175 18.803 18.896 18.7374 18.9619C18.6719 19.0278 18.594 19.0799 18.5082 19.1149C18.4225 19.15 18.3307 19.1674 18.2382 19.1661C17.5167 19.1785 16.7973 19.1796 16.0742 19.1661C15.9816 19.1658 15.8901 19.1467 15.8049 19.1101C15.7197 19.0735 15.6427 19.0201 15.5783 18.9529C15.5139 18.8858 15.4634 18.8063 15.4299 18.7192C15.3964 18.6321 15.3805 18.5391 15.3831 18.4456C15.397 18.0544 15.6985 17.7661 16.1089 17.7602C16.4632 17.7548 16.8165 17.758 17.1698 17.758Z" fill="#FF293E"/>
</svg>
