<svg width="24" height="24" viewBox="0 0 24 24" fill="none" xmlns="http://www.w3.org/2000/svg">
    <path d="M24 22.7384V23.0665C23.8578 23.4316 23.6055 23.6226 23.1984 23.6226C15.7307 23.6193 8.2626 23.6182 0.794068 23.6195C0.32251 23.6195 -0.000625331 23.3283 9.08642e-07 22.9131C0.000627148 22.4979 0.313119 22.2173 0.797203 22.2142C1.16293 22.2142 1.52802 22.2142 1.89876 22.2142C1.90787 22.178 1.91436 22.1411 1.91817 22.104C1.91817 20.3847 1.91817 18.6661 1.91817 16.9481C1.91482 16.8731 1.88459 16.8017 1.83301 16.7471C1.47354 16.3983 1.32638 15.9731 1.33201 15.4796C1.3389 14.9642 1.32888 14.4482 1.33577 13.9328C1.3339 13.7534 1.35239 13.5744 1.39088 13.3992C1.59065 12.6002 2.3484 12.0328 3.23766 12.0096C3.55579 12.0015 3.87392 12.0096 4.21647 12.0096V11.7334C4.21647 10.3557 4.21647 8.98363 4.21647 7.60903C4.21314 7.30532 4.3142 7.00966 4.50274 6.77153C4.69129 6.5334 4.95588 6.36723 5.25227 6.30082C5.37126 6.27452 5.49525 6.26763 5.61236 6.2526C5.65557 5.8255 5.65557 5.8255 5.32429 5.64577C4.4701 5.18361 4.00918 4.19791 4.27847 3.28422C4.59597 2.19457 5.179 1.22765 5.79397 0.286416C6.05449 -0.112498 6.65004 -0.0836919 6.90992 0.324616C7.45914 1.18695 7.96827 2.0737 8.32147 3.03936C8.47509 3.42697 8.50548 3.85252 8.40852 4.25803C8.22065 5.0045 7.75034 5.4986 7.05208 5.7873V6.25322C7.18087 6.2644 7.309 6.28217 7.43597 6.30646C8.05908 6.45738 8.45173 6.97778 8.45423 7.67416C8.45924 9.02559 8.45423 10.377 8.45423 11.7284C8.45423 11.818 8.46112 11.9075 8.46488 11.989H9.87893V11.6915C9.87893 10.3401 9.87893 8.98864 9.87893 7.63721C9.87893 6.97841 10.2766 6.46176 10.8859 6.30959C11.0135 6.28437 11.1422 6.26556 11.2717 6.25322C11.3274 5.83176 11.3274 5.83177 10.9755 5.64076C10.5504 5.41543 10.2168 5.04936 10.0318 4.60519C9.84689 4.16103 9.82206 3.6664 9.96159 3.20594C10.2872 2.16138 10.8465 1.22828 11.4314 0.315221C11.4918 0.217189 11.5767 0.136579 11.6777 0.0813254C11.7788 0.0260717 11.8925 -0.0019199 12.0076 0.00010229C12.1227 0.00212448 12.2354 0.0340935 12.3344 0.0928609C12.4334 0.151628 12.5154 0.235168 12.5724 0.335261C13.0558 1.18883 13.5493 2.04552 13.9319 2.94543C14.4267 4.11148 13.9633 5.17171 12.8279 5.7372C12.7958 5.75805 12.7683 5.78506 12.7467 5.81667C12.7252 5.84828 12.7103 5.88385 12.7026 5.92132C12.6904 6.02693 12.6885 6.13347 12.697 6.23945C12.7243 6.25148 12.7526 6.26112 12.7815 6.26825C13.6952 6.38035 14.1117 6.85253 14.1123 7.78V11.994H15.5376V11.493C15.5376 10.2198 15.5339 8.94605 15.5376 7.67291C15.5414 6.86882 16.0211 6.35029 16.812 6.27264C16.8558 6.26583 16.8991 6.25621 16.9417 6.24383C16.9817 5.80546 16.9817 5.80546 16.7932 5.71904C15.7781 5.24936 15.299 4.1929 15.6466 3.12954C15.9785 2.11315 16.5233 1.19884 17.0982 0.30708C17.3581 -0.0968448 17.9255 -0.0824411 18.2186 0.303322C18.3008 0.417146 18.3758 0.53594 18.4434 0.659026C18.9168 1.47314 19.4103 2.28725 19.6865 3.19592C19.8293 3.6633 19.8035 4.166 19.6135 4.61628C19.4235 5.06656 19.0814 5.4358 18.6469 5.65955C18.3225 5.83177 18.3069 5.86934 18.3964 6.25135C19.4278 6.32524 19.8142 7.06546 19.7873 7.89272C19.7459 9.17275 19.7766 10.4547 19.7766 11.7359V12.0102C20.1204 12.0102 20.4386 12.0027 20.7567 12.0102C21.7336 12.0372 22.7043 12.7561 22.6624 13.9585C22.6442 14.4814 22.6573 15.0055 22.6624 15.5285C22.671 15.9629 22.5105 16.3838 22.2146 16.702C22.1326 16.7979 22.0852 16.9185 22.0799 17.0446C22.0718 18.6847 22.0743 20.3255 22.0749 21.9662C22.0749 22.0413 22.0825 22.1171 22.0875 22.2167C22.4294 22.2167 22.7569 22.2342 23.0813 22.2123C23.5197 22.1797 23.8265 22.3357 24 22.7384ZM20.6553 22.2017V17.2487C20.0879 17.0815 19.5387 16.9319 18.997 16.7584C18.1008 16.4722 17.1871 16.2969 16.2534 16.4653C15.6036 16.5932 14.9616 16.7575 14.3302 16.9575C13.3395 17.2544 12.3325 17.4473 11.3055 17.2888C10.5448 17.1632 9.79347 16.9861 9.05668 16.759C8.10792 16.4778 7.14978 16.2774 6.17597 16.481C5.21908 16.6807 4.27972 16.9769 3.34036 17.2287V22.2017H20.6553ZM12.0232 13.413H3.47062C3.36915 13.4087 3.26749 13.4135 3.16689 13.4274C2.86567 13.4813 2.74042 13.6347 2.73917 13.9416C2.73917 14.457 2.7448 14.9724 2.73541 15.4878C2.73541 15.6957 2.83561 15.8009 3.01847 15.8197C3.13396 15.8281 3.25 15.8145 3.3604 15.7796C3.79876 15.6543 4.2315 15.5335 4.6611 15.3944C5.80962 15.0225 6.98131 14.8709 8.16804 15.1064C8.90011 15.251 9.6159 15.4821 10.3355 15.6831C11.055 15.8842 11.7758 16.0188 12.5091 15.8923C13.2229 15.7719 13.9279 15.6046 14.6196 15.3913C16.1739 14.9028 17.7157 14.8747 19.2681 15.3763C19.7572 15.5347 20.2526 15.6756 20.7492 15.8109C21.088 15.9036 21.2577 15.7658 21.2583 15.4214C21.2583 14.9204 21.2583 14.4194 21.2583 13.9184C21.2583 13.6466 21.16 13.5145 20.8982 13.4481C20.7845 13.4224 20.6679 13.411 20.5513 13.4143C17.709 13.413 14.8663 13.4126 12.0232 13.413ZM7.03517 11.9958V7.68794H5.64054V11.9958H7.03517ZM11.3068 7.68794V11.989H12.6995V7.68794H11.3068ZM18.3645 11.9996V7.69921H16.9692V11.9996H18.3645ZM6.38076 2.13695L6.28557 2.14259C6.07765 2.61039 5.85659 3.07318 5.66684 3.5485C5.54159 3.86788 5.6493 4.16284 5.91358 4.35572C6.03606 4.44851 6.18566 4.49847 6.33932 4.49791C6.49299 4.49734 6.64221 4.44628 6.76401 4.35259C6.89233 4.26693 6.98663 4.13907 7.03055 3.99117C7.07447 3.84328 7.06525 3.68467 7.00449 3.54286C6.81349 3.06692 6.59055 2.60601 6.38076 2.13695ZM17.7157 2.14134L17.6155 2.1357C17.4019 2.61853 17.1727 3.09572 16.9811 3.58732C16.8653 3.88416 16.9955 4.18601 17.2548 4.36511C17.3759 4.45307 17.5221 4.49971 17.6717 4.49813C17.8214 4.49655 17.9666 4.44684 18.0858 4.35635C18.3407 4.16847 18.4578 3.87163 18.3363 3.57104C18.1484 3.08821 17.9255 2.61728 17.7157 2.14134ZM12.0507 2.14885L11.9537 2.14259C11.7476 2.60037 11.5272 3.05189 11.3399 3.51718C11.1997 3.866 11.3055 4.16409 11.5904 4.36261C11.7104 4.45163 11.8559 4.49969 12.0053 4.49969C12.1547 4.49969 12.3002 4.45163 12.4202 4.36261C12.6951 4.16847 12.7991 3.86162 12.6594 3.51343C12.4716 3.05001 12.2543 2.60225 12.0507 2.14885Z" fill="#FF293E"/>
</svg>
