<svg width="24" height="24" viewBox="0 0 24 24" fill="none" xmlns="http://www.w3.org/2000/svg">
    <path d="M20.25 2.83348H17.5V1H15.6665V2.83348H8.33348V1H6.5V2.83348H3.75C3.02065 2.83348 2.32118 3.12321 1.80546 3.63893C1.28973 4.15466 1 4.85413 1 5.58348L1 23H23V5.58348C23 4.85413 22.7103 4.15466 22.1945 3.63893C21.6788 3.12321 20.9793 2.83348 20.25 2.83348ZM2.83348 5.58348C2.83342 5.46308 2.85709 5.34385 2.90312 5.23261C2.94915 5.12136 3.01666 5.02027 3.10177 4.93512C3.18688 4.84997 3.28794 4.78242 3.39916 4.73633C3.51039 4.69024 3.6296 4.66652 3.75 4.66652H20.25C20.3704 4.66652 20.4896 4.69024 20.6008 4.73633C20.7121 4.78242 20.8131 4.84997 20.8982 4.93512C20.9833 5.02027 21.0508 5.12136 21.0969 5.23261C21.1429 5.34385 21.1666 5.46308 21.1665 5.58348V8.33348H2.83348V5.58348ZM2.83348 21.1665V10.1665H21.1665V21.1665H2.83348Z" fill="#FF293E"/>
    <path d="M16.5835 12.9167H14.75V14.7502H16.5835V12.9167Z" fill="#FF293E"/>
    <path d="M12.9175 12.9167H11.084V14.7502H12.9175V12.9167Z" fill="#FF293E"/>
    <path d="M9.24949 12.9167H7.41602V14.7502H9.24949V12.9167Z" fill="#FF293E"/>
    <path d="M16.5835 16.5833H14.75V18.4167H16.5835V16.5833Z" fill="#FF293E"/>
    <path d="M12.9175 16.5833H11.084V18.4167H12.9175V16.5833Z" fill="#FF293E"/>
    <path d="M9.24949 16.5833H7.41602V18.4167H9.24949V16.5833Z" fill="#FF293E"/>
</svg>
