<svg width="18" height="18" viewBox="0 0 18 18" fill="none" xmlns="http://www.w3.org/2000/svg">
    <path d="M15.8132 12.078C15.5782 11.3852 15.1323 10.7832 14.538 10.3564C13.9436 9.92969 13.2306 9.69953 12.4988 9.69822H9.69735V8.93974C10.7358 8.76429 11.6705 8.20521 12.3161 7.37331C12.9617 6.54141 13.2712 5.4974 13.1831 4.44817C13.095 3.39895 12.6159 2.42108 11.8407 1.70837C11.0654 0.99565 10.0506 0.600098 8.9974 0.600098C7.94417 0.600098 6.92939 0.99565 6.15414 1.70837C5.37889 2.42108 4.89976 3.39895 4.81169 4.44817C4.72363 5.4974 5.03306 6.54141 5.67867 7.37331C6.32428 8.20521 7.25894 8.76429 8.29744 8.93974V9.69822H5.49694C4.76518 9.69953 4.05215 9.92969 3.4578 10.3564C2.86344 10.7832 2.41753 11.3852 2.18256 12.078C1.5821 12.3677 1.10477 12.8621 0.836415 13.4722C0.568064 14.0824 0.526317 14.7682 0.718683 15.4064C0.911049 16.0446 1.3249 16.5932 1.88579 16.9535C2.44667 17.3138 3.11777 17.4623 3.77836 17.3721C4.43894 17.2819 5.04565 16.959 5.48932 16.4614C5.933 15.9639 6.18453 15.3245 6.19865 14.6581C6.21278 13.9917 5.98858 13.3422 5.56638 12.8263C5.14418 12.3105 4.55171 11.9622 3.89554 11.8441C4.09224 11.6109 4.3374 11.4234 4.61396 11.2945C4.89052 11.1657 5.19183 11.0987 5.49694 11.0981H8.29744V11.8854C7.63752 12.0557 7.0624 12.4608 6.67987 13.0247C6.29735 13.5886 6.13368 14.2726 6.21954 14.9486C6.30541 15.6245 6.63492 16.2459 7.14631 16.6963C7.65769 17.1467 8.31585 17.3952 8.9974 17.3952C9.67894 17.3952 10.3371 17.1467 10.8485 16.6963C11.3599 16.2459 11.6894 15.6245 11.7752 14.9486C11.8611 14.2726 11.6974 13.5886 11.3149 13.0247C10.9324 12.4608 10.3573 12.0557 9.69735 11.8854V11.0981H12.4978C12.803 11.0983 13.1044 11.1649 13.3811 11.2934C13.6578 11.4219 13.9032 11.6092 14.1002 11.8421C13.444 11.9603 12.8515 12.3087 12.4293 12.8247C12.0071 13.3407 11.783 13.9904 11.7972 14.6568C11.8115 15.3233 12.0632 15.9628 12.507 16.4603C12.9508 16.9578 13.5577 17.2807 14.2183 17.3707C14.879 17.4608 15.5502 17.3123 16.1111 16.9518C16.672 16.5913 17.0858 16.0425 17.278 15.4042C17.4703 14.7659 17.4284 14.08 17.1599 13.4698C16.8913 12.8596 16.4138 12.3653 15.8132 12.0757V12.078ZM6.19723 4.79929C6.19723 4.24563 6.36146 3.7044 6.66914 3.24405C6.97683 2.7837 7.41416 2.42491 7.92582 2.21303C8.43748 2.00115 9.0005 1.94572 9.54368 2.05373C10.0869 2.16174 10.5858 2.42836 10.9774 2.81985C11.369 3.21135 11.6357 3.71014 11.7438 4.25316C11.8518 4.79618 11.7963 5.35904 11.5844 5.87055C11.3725 6.38206 11.0136 6.81926 10.5531 7.12686C10.0926 7.43445 9.55122 7.59863 8.9974 7.59863C8.25475 7.59863 7.54251 7.3037 7.01738 6.77872C6.49225 6.25374 6.19723 5.54172 6.19723 4.79929V4.79929ZM4.79698 14.5975C4.79698 14.8743 4.71486 15.145 4.561 15.3752C4.40714 15.6054 4.18845 15.7848 3.93259 15.8908C3.67673 15.9967 3.39518 16.0244 3.12356 15.9704C2.85194 15.9164 2.60244 15.7831 2.40661 15.5873C2.21079 15.3915 2.07743 15.1421 2.0234 14.8706C1.96937 14.599 1.9971 14.3176 2.10308 14.0618C2.20906 13.806 2.38853 13.5874 2.6188 13.4336C2.84907 13.2797 3.1198 13.1976 3.39674 13.1976C3.58063 13.1976 3.76274 13.2338 3.93264 13.3041C4.10255 13.3744 4.25692 13.4776 4.38696 13.6076C4.51699 13.7375 4.62013 13.8919 4.69049 14.0617C4.76084 14.2316 4.79703 14.4136 4.79698 14.5975V14.5975ZM10.3976 14.5975C10.3976 14.8743 10.3155 15.145 10.1617 15.3752C10.0078 15.6054 9.78911 15.7848 9.53325 15.8908C9.27738 15.9967 8.99584 16.0244 8.72422 15.9704C8.4526 15.9164 8.2031 15.7831 8.00727 15.5873C7.81144 15.3915 7.67808 15.1421 7.62405 14.8706C7.57003 14.599 7.59776 14.3176 7.70374 14.0618C7.80972 13.806 7.98919 13.5874 8.21946 13.4336C8.44973 13.2797 8.72045 13.1976 8.9974 13.1976C9.36876 13.1976 9.72492 13.3451 9.98752 13.6076C10.2501 13.8702 10.3976 14.2262 10.3976 14.5975V14.5975ZM14.5981 15.997C14.3211 15.9971 14.0503 15.915 13.82 15.7612C13.5897 15.6074 13.4101 15.3888 13.3041 15.133C13.1981 14.8772 13.1703 14.5957 13.2244 14.3241C13.2784 14.0526 13.4118 13.8031 13.6076 13.6073C13.8034 13.4115 14.053 13.2782 14.3246 13.2242C14.5963 13.1702 14.8779 13.1979 15.1337 13.3039C15.3896 13.4099 15.6083 13.5894 15.7621 13.8197C15.916 14.0499 15.998 14.3206 15.998 14.5975C15.998 14.9687 15.8505 15.3246 15.5879 15.5871C15.3254 15.8495 14.9693 15.997 14.5981 15.997V15.997Z" fill="#FF293E"/>
</svg>
