<svg width="25" height="24" viewBox="0 0 25 24" fill="none" xmlns="http://www.w3.org/2000/svg">
    <path d="M17.7188 7.1999C17.5696 7.17247 17.429 7.11002 17.3086 7.01769C17.1882 6.92536 17.0915 6.80578 17.0263 6.66878C15.579 3.61503 12.2273 1.9079 8.87477 2.52565C7.37922 2.80389 6.00541 3.53529 4.93958 4.62069C3.87374 5.70608 3.16745 7.09298 2.91646 8.59334C2.76548 9.48701 2.77585 10.4005 2.94709 11.2905C3.00309 11.5793 2.87884 11.9 2.62421 12.1314C1.85742 12.8283 1.31947 13.7408 1.08108 14.7492C0.842683 15.7575 0.915013 16.8144 1.28856 17.7808C1.6621 18.7473 2.31937 19.5781 3.17394 20.1639C4.02852 20.7498 5.04039 21.0634 6.07652 21.0634H16.3442C20.2043 21.0634 23.3442 17.9239 23.3442 14.0634C23.3442 10.7362 20.9782 7.84959 17.7188 7.1999ZM16.3442 19.197H6.0774C5.41789 19.1971 4.77379 18.9976 4.22982 18.6247C3.68585 18.2519 3.26747 17.7231 3.02972 17.1079C2.79197 16.4927 2.74597 15.82 2.89779 15.1782C3.0496 14.5364 3.39211 13.9556 3.88027 13.5121C4.61396 12.8445 4.95827 11.8571 4.77934 10.9331C4.65022 10.2613 4.64266 9.57184 4.75702 8.8974C5.13284 6.63728 6.96421 4.77309 9.2099 4.35965C9.5624 4.29535 9.91996 4.26284 10.2783 4.26253C11.3398 4.2572 12.3806 4.55628 13.2774 5.12434C14.1741 5.6924 14.8892 6.50563 15.338 7.46765C15.5272 7.86772 15.808 8.21758 16.1576 8.48886C16.5073 8.76015 16.9159 8.94522 17.3505 9.02909C18.5983 9.2804 19.7084 9.98628 20.4652 11.0098C21.222 12.0333 21.5717 13.3014 21.4463 14.5682C21.321 15.8349 20.7295 17.0099 19.7868 17.8653C18.844 18.7206 17.6171 19.1952 16.3442 19.197Z" fill="#FF293E"/>
    <path d="M12.4075 14.8118C12.4737 14.8778 12.5262 14.9562 12.562 15.0425C12.5979 15.1289 12.6163 15.2214 12.6163 15.3149C12.6163 15.4084 12.5979 15.501 12.562 15.5873C12.5262 15.6736 12.4737 15.752 12.4075 15.818L10.4825 17.743C10.2175 18.0082 9.85813 18.1575 9.48323 18.1582H9.4771H9.47054C9.09565 18.1575 8.73634 18.0082 8.47129 17.743L6.54629 15.818C6.41285 15.6846 6.33789 15.5036 6.33789 15.3149C6.33789 15.1262 6.41285 14.9452 6.54629 14.8118C6.67973 14.6784 6.86071 14.6034 7.04942 14.6034C7.23813 14.6034 7.4191 14.6784 7.55254 14.8118L8.76617 16.0254V10.2824C8.77077 10.0968 8.84771 9.92039 8.98058 9.79078C9.11345 9.66117 9.29171 9.58862 9.47732 9.58862C9.66294 9.58862 9.8412 9.66117 9.97406 9.79078C10.1069 9.92039 10.1839 10.0968 10.1885 10.2824V16.0254L11.4012 14.8118C11.4672 14.7456 11.5456 14.6931 11.632 14.6572C11.7183 14.6214 11.8109 14.603 11.9044 14.603C11.9978 14.603 12.0904 14.6214 12.1767 14.6572C12.2631 14.6931 12.3415 14.7456 12.4075 14.8118Z" fill="#FF293E"/>
    <path d="M17.7391 12.9185C17.8054 12.8525 17.858 12.7741 17.8939 12.6878C17.9298 12.6014 17.9483 12.5088 17.9483 12.4153C17.9483 12.3218 17.9298 12.2292 17.8939 12.1429C17.858 12.0565 17.8054 11.9782 17.7391 11.9122L15.8141 9.98721C15.5492 9.72211 15.19 9.57281 14.8153 9.57202H14.8087H14.8026C14.4277 9.57274 14.0683 9.72204 13.8033 9.98721L11.8783 11.9122C11.7449 12.0456 11.6699 12.2266 11.6699 12.4153C11.6699 12.604 11.7449 12.785 11.8783 12.9185C12.0118 13.0519 12.1927 13.1269 12.3814 13.1269C12.5702 13.1269 12.7511 13.0519 12.8846 12.9185L14.0986 11.7048V17.4479C14.1032 17.6335 14.1802 17.8099 14.313 17.9395C14.4459 18.0691 14.6242 18.1416 14.8098 18.1416C14.9954 18.1416 15.1737 18.0691 15.3065 17.9395C15.4394 17.8099 15.5163 17.6335 15.5209 17.4479V11.7048L16.7346 12.9185C16.8005 12.9848 16.8789 13.0374 16.9653 13.0733C17.0516 13.1092 17.1442 13.1277 17.2377 13.1277C17.3312 13.1277 17.4238 13.1092 17.5101 13.0733C17.5965 13.0374 17.6749 12.9848 17.7408 12.9185H17.7391Z" fill="#FF293E"/>
</svg>
