<svg width="18" height="18" viewBox="0 0 18 18" fill="none" xmlns="http://www.w3.org/2000/svg">
    <path d="M13.6666 2H4.33344C3.44968 2.00103 2.60244 2.33659 1.97753 2.93308C1.35262 3.52958 1.00108 4.3383 1 5.18187V12.8181C1.00108 13.6617 1.35262 14.4704 1.97753 15.0669C2.60244 15.6634 3.44968 15.999 4.33344 16H13.6666C14.5503 15.999 15.3976 15.6634 16.0225 15.0669C16.6474 14.4704 16.9989 13.6617 17 12.8181V5.18187C16.9989 4.3383 16.6474 3.52958 16.0225 2.93308C15.3976 2.33659 14.5503 2.00103 13.6666 2ZM4.33344 3.27281H13.6666C14.0658 3.27355 14.4556 3.38831 14.786 3.60234C15.1163 3.81636 15.3719 4.11984 15.52 4.47373L10.4147 9.34751C10.039 9.70471 9.53029 9.90527 9 9.90527C8.46971 9.90527 7.96103 9.70471 7.58531 9.34751L2.48 4.47373C2.62809 4.11984 2.88374 3.81636 3.21405 3.60234C3.54436 3.38831 3.93422 3.27355 4.33344 3.27281ZM13.6666 14.7272H4.33344C3.803 14.7272 3.2943 14.5261 2.91922 14.168C2.54415 13.81 2.33344 13.3244 2.33344 12.8181V6.1364L6.64281 10.2472C7.26849 10.843 8.1162 11.1776 9 11.1776C9.8838 11.1776 10.7315 10.843 11.3572 10.2472L15.6666 6.1364V12.8181C15.6666 13.3244 15.4558 13.81 15.0808 14.168C14.7057 14.5261 14.197 14.7272 13.6666 14.7272Z" fill="#FF293E"/>
</svg>
