<svg width="25" height="25" viewBox="0 0 25 25" fill="none" xmlns="http://www.w3.org/2000/svg">
    <path d="M15.8965 15.9086C15.8965 16.0311 15.8724 16.1525 15.8255 16.2658C15.7787 16.3791 15.7099 16.482 15.6233 16.5687C15.5366 16.6554 15.4337 16.7242 15.3205 16.7711C15.2072 16.818 15.0859 16.8422 14.9633 16.8422H13.0965V18.7086C13.0965 18.956 12.9981 19.1934 12.8231 19.3684C12.6481 19.5434 12.4108 19.6417 12.1633 19.6417C11.9158 19.6417 11.6784 19.5434 11.5034 19.3684C11.3284 19.1934 11.2301 18.956 11.2301 18.7086V16.8422H9.36327C9.11921 16.8369 8.88693 16.7362 8.7162 16.5618C8.54546 16.3873 8.44985 16.1529 8.44985 15.9088C8.44985 15.6647 8.54546 15.4303 8.7162 15.2558C8.88693 15.0813 9.11921 14.9806 9.36327 14.9754H11.2301V13.1086C11.2301 12.8611 11.3284 12.6237 11.5034 12.4487C11.6784 12.2737 11.9158 12.1754 12.1633 12.1754C12.4108 12.1754 12.6481 12.2737 12.8231 12.4487C12.9981 12.6237 13.0965 12.8611 13.0965 13.1086V14.9754H14.9633C15.2108 14.9754 15.4481 15.0737 15.6231 15.2487C15.7981 15.4237 15.8965 15.6611 15.8965 15.9086ZM21.4965 10.7614V18.7086C21.4951 19.9458 21.003 21.1319 20.1282 22.0068C19.2534 22.8817 18.0673 23.3739 16.8301 23.3754H7.49645C6.25924 23.3739 5.07314 22.8817 4.19834 22.0068C3.32353 21.1319 2.83147 19.9458 2.83008 18.7086V5.64218C2.83147 4.40496 3.32353 3.21881 4.19834 2.34393C5.07314 1.46905 6.25924 0.976869 7.49645 0.975364H11.7105C12.5688 0.973118 13.419 1.14104 14.212 1.46943C15.005 1.79782 15.725 2.28016 16.3305 2.88855L19.5824 6.14224C20.1911 6.74728 20.6738 7.46709 21.0023 8.25999C21.3309 9.05288 21.4988 9.90309 21.4965 10.7614ZM15.011 4.20849C14.7172 3.92402 14.3874 3.67927 14.0301 3.48049V7.50855C14.03 7.63114 14.0541 7.75253 14.101 7.8658C14.1479 7.97907 14.2166 8.082 14.3032 8.1687C14.3899 8.2554 14.4928 8.32418 14.606 8.3711C14.7193 8.41802 14.8407 8.44218 14.9633 8.44218H18.9913C18.7927 8.08475 18.5476 7.75522 18.2625 7.46218L15.011 4.20849ZM19.6301 10.7614C19.6301 10.6074 19.5999 10.4599 19.5863 10.3086H14.9633C14.2207 10.3086 13.5085 10.0136 12.9834 9.48845C12.4583 8.96335 12.1633 8.25116 12.1633 7.50855V2.88593C12.0119 2.87193 11.8636 2.84218 11.7105 2.84218H7.49645C6.75385 2.84218 6.04166 3.13718 5.51655 3.66228C4.99145 4.18738 4.69645 4.89957 4.69645 5.64218V18.7086C4.69645 19.4512 4.99145 20.1633 5.51655 20.6885C6.04166 21.2136 6.75385 21.5086 7.49645 21.5086H16.8301C17.5727 21.5086 18.2849 21.2136 18.81 20.6885C19.3351 20.1633 19.6301 19.4512 19.6301 18.7086V10.7614Z" fill="#FF293E"/>
</svg>
