<svg width="30" height="30" viewBox="0 0 30 30" fill="none" xmlns="http://www.w3.org/2000/svg">
    <path d="M24.4803 11.4994H24.3683C25.2383 9.73838 24.9847 6.16248 24.9205 5.41393L24.8202 4.29884L23.7191 4.5196C22.9753 4.66866 19.3787 5.45283 18.0068 6.8487C17.3379 5.78019 16.5788 4.77093 15.7377 3.83199L15.0008 3L14.257 3.8287C13.4158 4.76877 12.6567 5.77912 11.9879 6.8487C10.6159 5.45283 7.01941 4.66866 6.27414 4.5196L5.17826 4.29977L5.07842 5.41487C5.01327 6.16483 4.76062 9.73932 5.63058 11.5003H5.52136C5.06983 11.501 4.62674 11.6228 4.23821 11.8528C3.84969 12.0829 3.52995 12.4129 3.31227 12.8085C3.09783 13.1867 2.99014 13.6161 3.00071 14.0507C3.01128 14.4854 3.1397 14.909 3.37226 15.2764C5.30153 18.3428 10.3802 20.7332 13.027 21.8113C11.8955 22.7276 11.1682 24.0509 11.0012 25.4974V26.4986H19.0005V25.4988C18.9149 24.3688 18.4313 23.3058 17.6355 22.4989H19.0005C19.2631 22.4989 19.5232 22.5505 19.7658 22.651C20.0085 22.7515 20.229 22.8987 20.4147 23.0844C20.6004 23.2701 20.7477 23.4906 20.8483 23.7332C20.9488 23.9758 21.0005 24.2359 21.0005 24.4985H23.0006C22.999 23.5657 22.6714 22.6627 22.0745 21.9459C21.4775 21.229 20.6488 20.7434 19.7317 20.5729C22.2895 19.3041 25.2626 17.4662 26.6313 15.2731C26.8627 14.9053 26.9899 14.4815 26.9994 14.0471C27.0089 13.6126 26.9003 13.1838 26.6852 12.8062C26.4676 12.4115 26.1484 12.0823 25.7607 11.8525C25.3731 11.6227 24.931 11.5008 24.4803 11.4994ZM19.4008 8.2994C19.7757 7.79364 21.3853 7.17071 23.0006 6.74745C23.0526 8.44752 22.9124 10.1987 22.5347 10.7096C22.2312 11.1247 21.7753 11.4024 21.2671 11.4815C20.759 11.5606 20.2403 11.4347 19.825 11.1314L19.7964 11.1103C19.3754 10.787 19.0981 10.3114 19.0241 9.78572C18.9501 9.26007 19.0854 8.72637 19.4008 8.2994ZM15.0008 6.04858C16.063 7.3807 17.0009 8.87968 17.0009 9.49933C17.0009 10.0298 16.7902 10.5385 16.4151 10.9136C16.04 11.2887 15.5313 11.4994 15.0008 11.4994C14.4704 11.4994 13.9617 11.2887 13.5866 10.9136C13.2115 10.5385 13.0008 10.0298 13.0008 9.49933C13.0008 8.86234 13.9401 7.3746 15.0008 6.04858ZM7.00722 6.74276C8.6201 7.16462 10.2302 7.78849 10.6009 8.2994C10.9138 8.72485 11.0482 9.2557 10.9753 9.77878C10.9025 10.3019 10.6282 10.7758 10.211 11.0996C10.0081 11.2537 9.7768 11.3664 9.53035 11.4312C9.2839 11.496 9.0271 11.5115 8.77463 11.477C8.52216 11.4425 8.27897 11.3586 8.05895 11.23C7.83893 11.1015 7.6464 10.9308 7.49235 10.7279L7.47126 10.6993C7.09534 10.1935 6.95519 8.43955 7.00722 6.74276ZM13.3552 24.4985C13.8104 23.8328 14.3655 23.2412 15.0008 22.7445C15.6362 23.2412 16.1913 23.8328 16.6465 24.4985H13.3552ZM24.9378 14.2124C23.6437 16.2841 20.402 18.0821 17.9041 19.23C18.5737 18.0967 18.9506 16.8144 19.0009 15.499H17.0009C16.8158 17.1639 16.1168 18.7298 15.0008 19.9791C13.8849 18.7298 13.1859 17.1639 13.0008 15.499H11.0012C11.0521 16.8114 11.4278 18.0906 12.0948 19.2221C9.60114 18.0709 6.36226 16.2733 5.06389 14.2114C5.02277 14.1461 5.00095 14.0704 5.00095 13.9932C5.00095 13.916 5.02277 13.8404 5.06389 13.775C5.10828 13.6925 5.17401 13.6233 5.25424 13.5749C5.33446 13.5264 5.42623 13.5003 5.51996 13.4994H24.4803C24.5743 13.5 24.6663 13.5258 24.7469 13.5741C24.8274 13.6224 24.8935 13.6915 24.9383 13.7741C24.979 13.8399 25.0006 13.9159 25.0005 13.9933C25.0004 14.0707 24.9787 14.1466 24.9378 14.2124Z" fill="#FF293E"/>
</svg>
