<svg width="30" height="30" viewBox="0 0 30 30" fill="none" xmlns="http://www.w3.org/2000/svg">
    <path d="M23.1665 1H6.83352C5.28695 1.00188 3.80426 1.61709 2.71068 2.71068C1.61709 3.80426 1.00188 5.28695 1 6.83352L1 23.1665C1.00188 24.7131 1.61709 26.1957 2.71068 27.2893C3.80426 28.3829 5.28695 28.9981 6.83352 29H23.1665C24.7131 28.9981 26.1957 28.3829 27.2893 27.2893C28.3829 26.1957 28.9981 24.7131 29 23.1665V6.83352C28.9981 5.28695 28.3829 3.80426 27.2893 2.71068C26.1957 1.61709 24.7131 1.00188 23.1665 1V1ZM6.83352 3.33352H23.1665C24.0947 3.33352 24.985 3.70226 25.6414 4.35864C26.2977 5.01502 26.6665 5.90526 26.6665 6.83352V23.1665C26.6648 23.6864 26.5451 24.1991 26.3165 24.666L15.6267 13.9757C14.5327 12.8818 13.049 12.2672 11.5019 12.2672C9.95483 12.2672 8.4711 12.8818 7.37711 13.9757L3.33461 18.0171V6.83352C3.33461 5.90545 3.70321 5.01537 4.35935 4.35903C5.01549 3.70268 5.90545 3.33381 6.83352 3.33352ZM6.83352 26.6665C5.90526 26.6665 5.01502 26.2977 4.35864 25.6414C3.70226 24.985 3.33352 24.0947 3.33352 23.1665V21.3164L9.0243 15.6251C9.3493 15.3001 9.73514 15.0423 10.1598 14.8664C10.5844 14.6905 11.0396 14.5999 11.4992 14.5999C11.9588 14.5999 12.4139 14.6905 12.8386 14.8664C13.2632 15.0423 13.6491 15.3001 13.9741 15.6251L24.6644 26.3165C24.1975 26.5451 23.6847 26.6648 23.1648 26.6665H6.83352Z" fill="#FF293E"/>
    <path d="M19.6665 13.25C20.4741 13.2501 21.2637 13.0107 21.9353 12.5621C22.6069 12.1135 23.1304 11.4758 23.4395 10.7296C23.7487 9.98344 23.8296 9.16237 23.6721 8.37021C23.5146 7.57805 23.1258 6.85038 22.5547 6.27924C21.9836 5.70809 21.256 5.31912 20.4639 5.16151C19.6717 5.00391 18.8506 5.08474 18.1044 5.3938C17.3582 5.70285 16.7205 6.22625 16.2717 6.89779C15.823 7.56933 15.5835 8.35886 15.5835 9.16653C15.5835 10.2494 16.0136 11.288 16.7793 12.0538C17.545 12.8196 18.5835 13.2499 19.6665 13.25ZM19.6665 7.41653C20.0126 7.41653 20.3509 7.51916 20.6387 7.71145C20.9265 7.90375 21.1508 8.17706 21.2833 8.49683C21.4157 8.8166 21.4504 9.16847 21.3828 9.50793C21.3153 9.8474 21.1486 10.1592 20.9039 10.404C20.6592 10.6487 20.3473 10.8154 20.0079 10.8829C19.6684 10.9504 19.3165 10.9158 18.9968 10.7833C18.677 10.6509 18.4037 10.4266 18.2114 10.1388C18.0191 9.85099 17.9165 9.51264 17.9165 9.16653C17.9165 8.7024 18.1008 8.25728 18.429 7.92909C18.7572 7.6009 19.2023 7.41653 19.6665 7.41653Z" fill="#FF293E"/>
</svg>
