<svg width="30" height="30" viewBox="0 0 30 30" fill="none" xmlns="http://www.w3.org/2000/svg">
    <path d="M15.5985 28C15.0856 28 14.4083 27.9938 13.7179 27.9491C12.2279 27.851 10.862 27.278 9.65693 26.2449C8.59341 25.3322 7.86204 24.2277 7.48395 22.9618C7.32697 22.4034 7.1989 21.8372 7.10026 21.2656C7.06673 21.0887 7.03321 20.9124 6.99782 20.7367C6.89973 20.2456 6.82647 19.8054 6.77431 19.3969C6.68956 18.7148 6.82544 18.0234 7.16206 17.4242C7.49868 16.8249 8.01834 16.3492 8.64494 16.0666L8.51021 15.6376C8.34755 15.1198 8.1853 14.6041 8.02347 14.0905C7.78299 13.3285 7.5421 12.5665 7.3008 11.8045C6.91338 10.5777 6.52597 9.35088 6.13856 8.12407C5.79151 7.02393 6.10752 5.9511 6.96181 5.31845C7.38316 5.00422 7.89457 4.83418 8.42019 4.83356C9.41666 4.83356 10.2958 5.43455 10.7173 6.40183C11.2606 7.65471 11.8299 8.92125 12.3806 10.1468L12.691 10.8415C12.7713 8.72485 12.8504 6.60816 12.9282 4.49148C12.9748 3.22494 13.775 2.28683 15.018 2.0416L15.0292 2.03663C15.0434 2.03042 15.0571 2.02483 15.0714 2.01987L15.1241 2H15.7382L15.7953 2.02421C15.8983 2.06705 16.0051 2.10492 16.1181 2.14838C16.3832 2.24337 16.657 2.34209 16.9029 2.51034C17.5858 2.97846 17.9323 3.68996 17.9291 4.62868C17.926 5.56741 17.926 6.52787 17.9291 7.45418C17.9291 7.79151 17.9291 8.12904 17.9291 8.46678C18.171 8.3949 18.4219 8.3581 18.6742 8.35751C19.0085 8.35595 19.3396 8.42429 19.646 8.55815C19.9524 8.69201 20.2275 8.88843 20.4535 9.13482C20.8231 9.53764 21.0517 10.0497 21.1048 10.5938C21.1259 10.587 21.147 10.5795 21.1669 10.5733C21.3898 10.5038 21.6219 10.4685 21.8554 10.4684C23.0859 10.4684 24.1401 11.4202 24.255 12.6346C24.265 12.7265 24.2704 12.8189 24.2711 12.9115C24.2711 13.6912 24.2722 14.4712 24.2742 15.2514C24.2792 17.0438 24.2842 18.8971 24.255 20.7211C24.2314 22.187 23.7465 23.6162 22.8537 24.8529C21.9875 26.065 20.779 26.9907 19.3832 27.5114C18.5771 27.8204 17.7226 27.9841 16.8594 27.995H16.4869C16.1901 27.9975 15.8946 28 15.5985 28ZM15.9176 16.0176L14.3655 16.3795C12.8077 16.7421 11.1991 17.1177 9.61657 17.502C8.78215 17.7057 8.33327 18.3712 8.4444 19.246C8.49469 19.6421 8.56857 20.0463 8.64494 20.4374C8.69709 20.7137 8.7511 20.9999 8.79643 21.2843C9.00627 22.6054 9.48433 23.6547 10.2567 24.4928C11.1259 25.4334 12.1403 26.0058 13.2783 26.1946C14.7164 26.4323 16.1828 26.4434 17.6243 26.2275C19.7482 25.9108 21.2805 24.6946 22.1782 22.6123C22.629 21.5667 22.6166 20.4685 22.6029 19.3056C22.6029 19.1678 22.5998 19.0275 22.5986 18.8859C22.3434 18.9645 22.0783 19.0063 21.8113 19.0101C21.1116 19.0101 20.4926 18.7071 19.9662 18.1086C19.5794 18.3495 19.1335 18.4785 18.6779 18.4811C18.0922 18.4793 17.5268 18.2663 17.0854 17.8814C16.6285 18.6394 15.9325 19.1821 15.0118 19.4956C14.5318 19.6589 14.0463 19.8389 13.577 20.0134L13.089 20.1909C13.0418 20.2083 13.0095 20.2226 12.9872 20.2332C13.0011 20.27 13.0171 20.3061 13.035 20.3412C13.0915 20.456 13.1505 20.5703 13.2088 20.6845C13.333 20.9217 13.4572 21.1669 13.5664 21.4202C13.6566 21.631 13.6867 21.8627 13.6533 22.0895C13.5968 22.4229 13.3299 22.657 12.9561 22.7004C12.9201 22.7046 12.8838 22.7067 12.8475 22.7066C12.5277 22.7066 12.2626 22.5359 12.1025 22.2261C11.8839 21.8058 11.6815 21.3941 11.5114 21.0465C11.2668 20.5442 11.2308 20.0444 11.4083 19.6011C11.5859 19.1578 11.959 18.8195 12.4849 18.6245C13.0399 18.4196 13.6024 18.2148 14.1519 18.0173L14.5325 17.8795C15.0974 17.6752 15.4849 17.3468 15.7164 16.8768C15.8531 16.6109 15.9222 16.3153 15.9176 16.0163V16.0176ZM21.8585 12.1404C21.7667 12.1407 21.6756 12.1575 21.5897 12.19C21.2637 12.3142 21.1042 12.593 21.1023 13.0468C21.0955 14.3407 21.0967 15.4718 21.1054 16.5068C21.107 16.6461 21.1355 16.7837 21.1892 16.9122C21.2467 17.04 21.3404 17.1482 21.4587 17.2233C21.577 17.2984 21.7147 17.3373 21.8548 17.335C21.9531 17.3357 22.0505 17.3168 22.1414 17.2794C22.2323 17.242 22.3148 17.1868 22.3842 17.1172C22.4535 17.0475 22.5083 16.9648 22.5453 16.8737C22.5824 16.7827 22.6009 16.6852 22.5998 16.5869C22.6073 16.1672 22.606 15.7382 22.6042 15.3241C22.6042 15.1279 22.6042 14.9323 22.6042 14.7361C22.6042 14.5399 22.6042 14.3599 22.6042 14.1712C22.6042 13.7577 22.6085 13.3305 22.5998 12.9121C22.5886 12.4775 22.2639 12.1391 21.8585 12.1391V12.1404ZM18.6847 10.0295C18.6199 10.0298 18.5553 10.0375 18.4923 10.0524C18.0061 10.1654 17.9335 10.641 17.9304 10.9142C17.9242 12.4427 17.9186 14.2215 17.9378 15.9896C17.9471 16.1777 18.0056 16.3601 18.1073 16.5186C18.1687 16.6095 18.2522 16.6834 18.3499 16.7333C18.4476 16.7831 18.5564 16.8073 18.6661 16.8036C18.7504 16.8038 18.8342 16.7905 18.9144 16.7645C19.2317 16.6614 19.4229 16.3919 19.426 16.0393C19.4322 15.424 19.431 14.7976 19.4297 14.1917C19.4297 13.9334 19.4297 13.6747 19.4297 13.4156V13.1052C19.4297 12.9462 19.4297 12.7873 19.4297 12.6277C19.4297 12.0342 19.4328 11.4196 19.4266 10.8167C19.4211 10.3598 19.1094 10.0282 18.6847 10.0282V10.0295ZM8.43074 6.50241C8.29683 6.5035 8.1654 6.53876 8.04892 6.60485C7.71366 6.79111 7.59446 7.15617 7.73105 7.58828C8.40156 9.71987 9.07374 11.8515 9.74757 13.983L10.2443 15.5619L10.2629 15.624L16.2541 14.2165V6.84574C16.2541 6.61851 16.2541 6.39066 16.2541 6.16281C16.2541 5.61646 16.2584 5.05148 16.2466 4.4983C16.2458 4.2812 16.1592 4.07323 16.0057 3.91972C15.8522 3.7662 15.6442 3.6796 15.4271 3.67878H15.4159C14.9615 3.68623 14.6188 4.03515 14.6008 4.50824C14.5648 5.54878 14.5261 6.58912 14.4847 7.62926C14.4375 8.92518 14.3897 10.2205 14.3412 11.5152C14.3189 12.1012 14.2928 12.724 14.2425 13.333C14.2109 13.721 13.9619 14.0364 13.5596 14.1972C13.4178 14.2557 13.266 14.2863 13.1126 14.2873C12.6532 14.2873 12.2583 13.9961 12.0311 13.487C11.5758 12.4675 11.1205 11.4473 10.6652 10.4262L10.0859 9.12675C9.99156 8.91566 9.89761 8.70416 9.80407 8.49224C9.58863 8.00425 9.36513 7.49888 9.13851 7.00778C8.99448 6.69115 8.72875 6.50241 8.43074 6.50241Z" fill="#FF293E"/>
</svg>
