<svg width="30" height="30" viewBox="0 0 30 30" fill="none" xmlns="http://www.w3.org/2000/svg">
    <path d="M20.8289 1C20.6757 0.999928 20.524 1.03005 20.3824 1.08863C20.2409 1.14722 20.1122 1.23313 20.0039 1.34146C19.8955 1.44978 19.8096 1.57839 19.7509 1.71995C19.6923 1.86151 19.6621 2.01323 19.6621 2.16646C19.6621 5.60733 16.6495 6.8334 13.8305 6.8334H5.66539C4.42805 6.8334 3.24139 7.32504 2.36646 8.20016C1.49153 9.07528 1 10.2622 1 11.4998L1 13.8333C1.0025 14.5318 1.1626 15.2208 1.46837 15.8489C1.77415 16.4769 2.21771 17.0279 2.76599 17.4606L6.9322 26.7611C7.22868 27.4273 7.71178 27.9933 8.32308 28.3906C8.93437 28.788 9.64768 28.9996 10.3767 29C10.9566 28.9992 11.527 28.8534 12.0362 28.5759C12.5454 28.2985 12.9772 27.8981 13.2923 27.4112C13.6074 26.9243 13.7958 26.3664 13.8405 25.7881C13.8851 25.2098 13.7845 24.6296 13.5478 24.1001L10.9831 18.4997H13.8305C16.6495 18.4997 19.6621 19.7257 19.6621 23.1661C19.6587 23.3214 19.6864 23.4758 19.7435 23.6203C19.8007 23.7648 19.886 23.8965 19.9947 24.0075C20.1033 24.1186 20.2331 24.2068 20.3763 24.2671C20.5195 24.3273 20.6732 24.3583 20.8286 24.3583C20.9839 24.3583 21.1377 24.3273 21.2809 24.2671C21.4241 24.2068 21.5538 24.1186 21.6625 24.0075C21.7712 23.8965 21.8565 23.7648 21.9136 23.6203C21.9708 23.4758 21.9984 23.3214 21.9951 23.1661V2.16646C21.9951 2.01328 21.9649 1.8616 21.9063 1.72008C21.8477 1.57855 21.7618 1.44996 21.6535 1.34165C21.5452 1.23333 21.4166 1.14741 21.2752 1.08879C21.1337 1.03017 20.982 1 20.8289 1V1ZM11.4248 25.0549C11.5016 25.2295 11.5338 25.4204 11.5184 25.6105C11.5029 25.8006 11.4404 25.9838 11.3365 26.1437C11.2325 26.3036 11.0904 26.435 10.9229 26.5262C10.7555 26.6174 10.5679 26.6654 10.3773 26.666C10.0991 26.6658 9.82697 26.5847 9.59401 26.4327C9.36105 26.2807 9.17728 26.0642 9.06506 25.8096L5.78786 18.4997H8.41717L11.4248 25.0549ZM19.6627 18.0332C17.9964 16.7488 15.9332 16.0883 13.8311 16.1662H5.66539C5.04679 16.1662 4.45353 15.9204 4.01612 15.4829C3.57871 15.0454 3.33297 14.452 3.33297 13.8333V11.4998C3.33297 10.881 3.57869 10.2876 4.01609 9.84998C4.45348 9.41238 5.04674 9.16647 5.66539 9.16632H13.8305C15.9318 9.24632 17.9948 8.58855 19.6621 7.30699L19.6627 18.0332ZM28.8775 19.0268C28.8092 19.164 28.7145 19.2864 28.5988 19.3869C28.4832 19.4875 28.3489 19.5642 28.2036 19.6128C28.0582 19.6615 27.9048 19.6809 27.7519 19.6702C27.5991 19.6594 27.4498 19.6187 27.3127 19.5502V19.5502L24.9798 18.3837C24.7029 18.2454 24.4923 18.0028 24.3942 17.7092C24.2962 17.4155 24.3188 17.095 24.4571 16.8181C24.5953 16.5411 24.8379 16.3304 25.1315 16.2324C25.4251 16.1343 25.7455 16.157 26.0224 16.2952L28.3543 17.4606C28.6298 17.5989 28.8394 17.8406 28.9373 18.1329C29.0353 18.4252 29.0136 18.7444 28.877 19.0208L28.8775 19.0268ZM24.4554 8.52704C24.3869 8.38992 24.3459 8.24062 24.3351 8.08769C24.3242 7.93475 24.3435 7.78116 24.392 7.63571C24.4405 7.49026 24.5172 7.35579 24.6177 7.23999C24.7181 7.12419 24.8404 7.02933 24.9776 6.96082V6.96082L27.3106 5.79436C27.5874 5.65607 27.9079 5.63345 28.2015 5.7315C28.495 5.82954 28.7376 6.04021 28.8759 6.31716C29.0142 6.59411 29.0368 6.91465 28.9387 7.20827C28.8407 7.50189 28.6301 7.74454 28.3532 7.88283L26.0213 9.04984C25.8843 9.11854 25.735 9.15954 25.5821 9.1705C25.4292 9.18145 25.2757 9.16215 25.1302 9.1137C24.9848 9.06524 24.8504 8.98858 24.7346 8.88811C24.6188 8.78763 24.5239 8.66531 24.4554 8.52813V8.52704ZM24.3275 12.6663C24.3275 12.513 24.3577 12.3613 24.4163 12.2197C24.475 12.0782 24.5609 11.9496 24.6693 11.8413C24.7776 11.7329 24.9062 11.647 25.0478 11.5884C25.1894 11.5298 25.3411 11.4997 25.4943 11.4998H27.8272C28.1322 11.5064 28.4225 11.6322 28.6359 11.8503C28.8492 12.0684 28.9687 12.3614 28.9687 12.6665C28.9687 12.9717 28.8492 13.2647 28.6359 13.4827C28.4225 13.7008 28.1322 13.8267 27.8272 13.8333H25.4943C25.3411 13.8333 25.1894 13.8031 25.0478 13.7444C24.9063 13.6858 24.7777 13.5998 24.6694 13.4914C24.5611 13.383 24.4752 13.2544 24.4167 13.1128C24.3581 12.9712 24.328 12.8195 24.328 12.6663H24.3275Z" fill="#FF293E"/>
</svg>
