<svg width="18" height="18" viewBox="0 0 18 18" fill="none" xmlns="http://www.w3.org/2000/svg">
    <path d="M17 8.25012C16.9992 7.45466 16.6924 6.69203 16.147 6.12956C15.6016 5.56708 14.8621 5.25072 14.0907 5.24988V3.75012C14.0896 2.75593 13.7062 1.80277 13.0246 1.09974C12.3429 0.39671 11.4187 0.00120964 10.4546 0L7.54536 0C6.58131 0.00120964 5.65709 0.39671 4.97544 1.09974C4.29378 1.80277 3.91036 2.75593 3.90928 3.75012V5.24988C3.13794 5.25072 2.39842 5.56708 1.853 6.12956C1.30759 6.69203 1.00081 7.45466 1 8.25012V11.9999C1 12.0129 1 12.0262 1 12.0389C1.01053 12.6287 1.24497 13.1906 1.65293 13.604C2.06089 14.0174 2.60982 14.2493 3.18179 14.2499H8.27285V16.4999H5.36357C5.1734 16.5041 4.99241 16.585 4.85937 16.7252C4.72633 16.8654 4.65183 17.0538 4.65183 17.2499C4.65183 17.4461 4.72633 17.6345 4.85937 17.7747C4.99241 17.9149 5.1734 17.9958 5.36357 18H12.6364C12.8266 17.9958 13.0076 17.9149 13.1406 17.7747C13.2737 17.6345 13.3482 17.4461 13.3482 17.2499C13.3482 17.0538 13.2737 16.8654 13.1406 16.7252C13.0076 16.585 12.8266 16.5041 12.6364 16.4999H9.72715V14.2499H14.8182C15.3902 14.2493 15.9391 14.0174 16.3471 13.604C16.755 13.1906 16.9895 12.6287 17 12.0389C17 12.0262 17 12.0136 17 11.9999V8.25012ZM15.5454 8.25012V9.87891C15.3119 9.7934 15.066 9.74976 14.8182 9.74988H14.0907V6.75C14.4764 6.75047 14.8461 6.90866 15.1188 7.18989C15.3915 7.47111 15.5449 7.8524 15.5454 8.25012ZM5.36357 3.75012C5.3643 3.15361 5.59439 2.58174 6.0034 2.15995C6.41241 1.73815 6.96694 1.50086 7.54536 1.50012H10.4546C11.0331 1.50086 11.5876 1.73815 11.9966 2.15995C12.4056 2.58174 12.6357 3.15361 12.6364 3.75012V9.74988H5.36357V3.75012ZM3.90928 6.75V9.74988H3.18179C2.93404 9.74976 2.6881 9.7934 2.45464 9.87891V8.25012C2.45509 7.8524 2.60849 7.47111 2.88119 7.18989C3.15389 6.90866 3.52362 6.75047 3.90928 6.75ZM14.8182 12.7501H3.18179C2.99162 12.7459 2.81062 12.665 2.67758 12.5248C2.54455 12.3846 2.47004 12.1962 2.47004 12.0001C2.47004 11.8039 2.54455 11.6155 2.67758 11.4753C2.81062 11.3351 2.99162 11.2542 3.18179 11.25H14.8182C15.0084 11.2542 15.1894 11.3351 15.3224 11.4753C15.4555 11.6155 15.53 11.8039 15.53 12.0001C15.53 12.1962 15.4555 12.3846 15.3224 12.5248C15.1894 12.665 15.0084 12.7459 14.8182 12.7501Z" fill="#FF293E"/>
</svg>
