<svg width="25" height="24" viewBox="0 0 25 24" fill="none" xmlns="http://www.w3.org/2000/svg">
    <path d="M2 4.02002V19.7066L13.7381 22V2L2 4.02002Z" fill="#FF293E"/>
    <path d="M14.4688 11.5235V16.7848H21.1072C21.1072 16.7848 22.0786 16.6502 21.9977 15.3795L22.0025 8.5061L17.1387 11.7894C17.1387 11.7894 15.7641 12.8949 14.4688 11.5235Z" fill="#FF293E"/>
    <path d="M14.4688 6.05951H21.1611C21.1611 6.05951 21.9486 6.00569 21.9486 6.86095L15.8974 10.8795L14.4688 9.97038V6.05951Z" fill="#FF293E"/>
    <path d="M7.89725 8.28027C6.42114 8.28027 5.22461 9.86863 5.22461 11.8278C5.22461 13.787 6.42114 15.3754 7.89725 15.3754C9.37335 15.3754 10.5693 13.787 10.5693 11.8278C10.5693 9.86863 9.37281 8.28027 7.89725 8.28027ZM7.86594 13.9237C7.15623 13.9237 6.5809 12.9829 6.5809 11.8246C6.5809 10.6663 7.15623 9.72276 7.86594 9.72276C8.57566 9.72276 9.15045 10.6636 9.15045 11.8246C9.15045 12.9856 8.57512 13.9237 7.86594 13.9237Z" fill="white"/>
</svg>
