<svg width="18" height="18" viewBox="0 0 18 18" fill="none" xmlns="http://www.w3.org/2000/svg">
    <path d="M9 16C4.58875 16 1 12.4113 1 8C1 3.58875 4.58875 0 9 0C13.4113 0 17 3.58875 17 8C17 12.4113 13.4113 16 9 16ZM9 1.33344C5.32406 1.33344 2.33344 4.32406 2.33344 8C2.33344 11.6759 5.32406 14.6666 9 14.6666C12.6759 14.6666 15.6666 11.6759 15.6666 8C15.6666 4.32406 12.6759 1.33344 9 1.33344ZM6.09062 9.31406L5.22281 9.98063C5.15206 10.0514 5.09593 10.1354 5.05764 10.2278C5.01935 10.3202 4.99964 10.4193 4.99964 10.5194C4.99964 10.6194 5.01935 10.7185 5.05764 10.8109C5.09593 10.9034 5.15206 10.9874 5.22281 11.0581L5.57062 11.4581C5.74609 11.632 5.95426 11.7695 6.18313 11.8625C6.412 11.9555 6.65703 12.0022 6.90406 12C9.38 12 13 8.57125 13 5.90625C13.0022 5.65919 12.9554 5.41414 12.8624 5.18526C12.7693 4.95639 12.6318 4.74823 12.4578 4.57281L12.0578 4.225C11.9871 4.15426 11.9031 4.09814 11.8107 4.05985C11.7183 4.02156 11.6192 4.00186 11.5192 4.00186C11.4192 4.00186 11.3201 4.02156 11.2277 4.05985C11.1353 4.09814 11.0513 4.15426 10.9806 4.225L10.3125 5.09125C10.2417 5.162 10.1856 5.24599 10.1473 5.33843C10.109 5.43087 10.0893 5.52994 10.0893 5.63C10.0893 5.73006 10.109 5.82913 10.1473 5.92157C10.1856 6.01401 10.2417 6.098 10.3125 6.16875L10.8797 6.88125C10.2791 8.37719 9.26031 9.35469 7.87969 9.88125L7.16719 9.31406C7.09644 9.24331 7.01245 9.18718 6.92001 9.14889C6.82757 9.1106 6.72849 9.09089 6.62844 9.09089C6.52838 9.09089 6.4293 9.1106 6.33687 9.14889C6.24443 9.18718 6.16043 9.24331 6.08969 9.31406H6.09062Z" fill="#FF293E"/>
</svg>
