<svg width="24" height="24" viewBox="0 0 24 24" fill="none" xmlns="http://www.w3.org/2000/svg">
    <path d="M23.2008 11.9847C23.2008 10.8515 22.8644 9.76523 22.2003 8.75503C21.6044 7.8487 20.769 7.04623 19.7183 6.36927C17.6892 5.06417 15.0224 4.34455 12.2095 4.34455C11.2837 4.34377 10.3596 4.42361 9.44752 4.58319C8.87502 4.04613 8.23663 3.5851 7.54791 3.21133C3.85918 1.41103 0.800781 3.16929 0.800781 3.16929C0.800781 3.16929 3.64436 5.52229 3.18219 7.58472C1.90986 8.85581 1.21814 10.389 1.21814 11.9847V12.0156C1.21814 13.6113 1.90801 15.1445 3.18219 16.4156C3.64436 18.478 0.800781 20.831 0.800781 20.831C0.800781 20.831 3.85918 22.5893 7.54791 20.789C8.23566 20.4156 8.87321 19.9552 9.44506 19.419C10.3572 19.5783 11.2813 19.658 12.207 19.657C15.0199 19.657 17.6867 18.9386 19.7158 17.6329C20.7666 16.9565 21.6019 16.1541 22.1979 15.2471C22.862 14.2369 23.1983 13.1501 23.1983 12.0175V11.9865L23.2008 11.9847ZM12.2095 18.0836C11.0996 18.086 9.9933 17.958 8.91293 17.7021C7.86952 18.9658 5.57527 20.7228 3.34668 20.1553C4.07154 19.3707 5.14563 18.0452 4.91547 15.8623C3.57991 14.8156 2.77772 13.4753 2.77772 12.015C2.77772 8.66354 7.00043 5.94701 12.2095 5.94701C17.4185 5.94701 21.6406 8.66168 21.6406 12.015C21.6406 15.3683 17.4179 18.0836 12.2095 18.0836Z" fill="#FF293E"/>
    <path d="M12.4114 13.4551C13.0943 13.3435 13.558 12.6953 13.4472 12.0074C13.3363 11.3195 12.6929 10.8524 12.0099 10.9641C11.327 11.0757 10.8633 11.7239 10.9742 12.4118C11.085 13.0997 11.7285 13.5668 12.4114 13.4551Z" fill="#FF293E"/>
    <path d="M16.7668 13.4549C17.4498 13.3432 17.9135 12.6951 17.8026 12.0072C17.6918 11.3193 17.0483 10.8522 16.3654 10.9638C15.6825 11.0755 15.2188 11.7237 15.3296 12.4115C15.4405 13.0994 16.0839 13.5665 16.7668 13.4549Z" fill="#FF293E"/>
    <path d="M8.91869 12.8748C9.28244 12.2821 9.10024 11.5045 8.51174 11.1381C7.92324 10.7717 7.15129 10.9552 6.78753 11.548C6.42378 12.1408 6.60598 12.9184 7.19448 13.2848C7.78299 13.6512 8.55494 13.4676 8.91869 12.8748Z" fill="#FF293E"/>
</svg>
