<svg width="35" height="34" viewBox="0 0 35 34" fill="none" xmlns="http://www.w3.org/2000/svg">
    <path d="M33.0334 14.7963C31.3139 15.1391 29.5943 15.485 27.8748 15.834C27.5774 15.8932 27.3092 15.9874 27.2106 16.3096C27.1121 16.6318 27.2681 16.8855 27.5046 17.1014C27.7094 17.2882 27.9056 17.4853 28.0864 17.6601L25.1095 20.6396C24.8301 20.3431 24.5302 20.0149 24.22 19.697C23.8155 19.284 23.405 18.8761 22.9937 18.4699C22.6013 18.0817 22.2816 18.0817 21.8866 18.4751C21.0965 19.26 20.3107 20.0501 19.5232 20.8367C19.4375 20.9224 19.3518 20.997 19.2044 21.1401C19.4718 20.176 19.7186 19.2977 19.9585 18.4176C20.0802 17.9746 20.2327 17.535 20.3013 17.0834C20.5224 15.7123 19.8557 14.4724 18.6046 13.8605C18.548 13.8331 18.4923 13.804 18.4023 13.7586C18.5909 13.2136 18.7768 12.6711 18.9662 12.1304C19.0519 11.8888 19.0819 11.5683 19.2541 11.4346C19.4067 11.3155 19.722 11.4063 19.9654 11.4029C21.9269 11.3823 23.6501 10.7233 25.1429 9.45852C25.9518 8.77299 26.0615 7.68984 25.4171 6.91089C24.7727 6.13195 23.6861 6.05397 22.8643 6.72152C22.3168 7.16454 21.7503 7.55958 21.0185 7.62043C20.1967 7.68984 19.4915 7.42676 18.8762 6.84491L19.1959 6.69923C20.3827 6.15937 21.0382 4.97339 20.8917 3.63317C20.7606 2.43862 19.788 1.40517 18.5634 1.15666C18.5026 1.14028 18.4428 1.12025 18.3843 1.09668H17.5506C17.3792 1.15067 17.2078 1.20037 17.0364 1.25864C16.6362 1.39731 16.2707 1.62105 15.9652 1.91445C15.6597 2.20785 15.4214 2.56396 15.2667 2.95826C15.112 3.35256 15.0445 3.77571 15.069 4.19857C15.0934 4.62144 15.2091 5.034 15.4083 5.40785C15.4631 5.51068 15.5205 5.6118 15.5925 5.74034C15.5068 5.76947 15.446 5.79518 15.38 5.81489C14.7197 6.01828 14.1336 6.41099 13.6944 6.94431C12.6609 8.17251 11.3049 9.08754 9.77913 9.5862C8.94449 9.86299 8.94363 9.86299 8.36178 10.5074C7.96931 10.1141 7.57856 9.71988 7.18523 9.32827C6.444 8.5896 5.6085 8.58532 4.87154 9.3197C3.85523 10.3334 2.84663 11.354 1.82347 12.3618C1.50641 12.6737 1.22363 13.0002 1.0968 13.4355V14.0139C1.24933 14.4621 1.56554 14.7852 1.89289 15.1134C3.32109 16.5313 4.74558 17.954 6.16635 19.3817C6.91359 20.1281 7.7448 20.1246 8.49889 19.3731C8.99934 18.8744 9.49949 18.3748 9.99936 17.8744C10.0354 17.8487 10.0728 17.8253 10.1116 17.8041C10.0645 17.9412 10.0362 18.032 10.0028 18.1194C9.78171 18.6987 9.55548 19.2763 9.33953 19.8573C9.187 20.2686 9.33182 20.6285 9.6883 20.7613C10.0448 20.8941 10.3824 20.7245 10.5452 20.3054C11.1922 18.619 11.8435 16.9335 12.469 15.2393C12.5821 14.9343 12.7261 14.8486 13.0423 14.8528C14.4237 14.8726 15.805 14.8597 17.1864 14.8614C18.5377 14.8614 19.3235 15.8837 18.9679 17.1828C18.5166 18.8333 18.0596 20.4814 17.5968 22.1273C17.5659 22.2623 17.5092 22.39 17.4297 22.5034C17.3594 22.6004 17.2561 22.6684 17.1392 22.6948C17.0224 22.7211 16.8999 22.704 16.7948 22.6466C16.6787 22.5994 16.5834 22.5124 16.5259 22.4011C16.4684 22.2899 16.4525 22.1618 16.4811 22.0399C16.7202 20.5291 16.9644 19.0192 17.2035 17.5084C17.2338 17.3509 17.2484 17.1907 17.2472 17.0303C17.2453 16.8835 17.1876 16.7429 17.086 16.6369C16.9843 16.531 16.8462 16.4676 16.6996 16.4596C16.1435 16.4407 15.5856 16.4442 15.0295 16.4596C14.7373 16.4656 14.5848 16.6729 14.4631 16.9163C13.6313 18.5685 12.7972 20.2197 11.9609 21.8702C11.1645 23.4446 10.3693 25.0197 9.57519 26.5952C9.42437 26.8969 9.22642 27.1094 8.86137 27.0863C8.43291 27.0606 8.15698 26.6895 8.28466 26.2799C8.39006 25.9431 8.5306 25.6184 8.64971 25.2867C8.80139 24.866 8.66771 24.5078 8.31637 24.375C7.96503 24.2421 7.62312 24.4067 7.45945 24.8214C7.33519 25.1291 7.21437 25.4375 7.10211 25.7495C6.7422 26.7478 7.16124 27.7847 8.09014 28.2045C8.54841 28.4159 9.07076 28.4414 9.54744 28.2757C10.0241 28.11 10.418 27.766 10.6463 27.3159C11.4176 25.8154 12.1734 24.3021 12.936 22.7939C13.7467 21.1906 14.5642 19.5908 15.362 17.9815C15.4768 17.7501 15.6122 17.6953 15.8624 17.7681C15.7099 18.7356 15.5582 19.6945 15.4074 20.6534C15.3457 21.0441 15.2843 21.4352 15.2232 21.8265C15.0912 22.6765 15.4554 23.4006 16.2155 23.7974C16.3203 23.8526 16.4155 23.9243 16.4974 24.0099C16.3869 24.0742 16.2566 24.1179 16.1683 24.2053C13.9306 26.4333 11.6961 28.6661 9.46465 30.9039C8.9942 31.3752 8.9942 31.6537 9.46465 32.1241C9.91796 32.5783 10.3704 33.035 10.828 33.4858C11.0088 33.664 11.2016 33.8285 11.3884 33.9999H11.774C11.9152 33.9055 12.0501 33.8018 12.1777 33.6897C13.2865 32.5877 14.3919 31.4823 15.4939 30.3734C15.5957 30.2791 15.6793 30.167 15.7407 30.0426C15.7944 29.9069 15.7995 29.7568 15.7553 29.6177C15.7111 29.4786 15.6203 29.3591 15.4982 29.2791C15.3772 29.1973 15.2312 29.1606 15.0858 29.1755C14.9405 29.1903 14.805 29.2559 14.703 29.3605C14.3765 29.6699 14.0637 29.9929 13.745 30.3109L11.6369 32.4163C11.3353 32.101 11.0431 31.7942 10.7723 31.5097C14.6456 27.6381 18.5572 23.7274 22.507 19.7776L24.5353 21.8162C25.0495 22.3303 25.3117 22.3363 25.8259 21.823C26.9776 20.6731 28.1284 19.5219 29.2784 18.3697C29.8088 17.8375 29.8088 17.6036 29.2904 17.0543C29.2544 17.0166 29.2235 16.9737 29.1576 16.8923L32.5415 16.2068C32.3145 17.3431 32.0934 18.4451 31.8612 19.6062C31.6966 19.4485 31.5621 19.32 31.4327 19.1897C31.0385 18.8067 30.7172 18.8041 30.3264 19.194C28.6897 20.829 27.0538 22.4646 25.4188 24.1007C25.352 24.1684 25.2808 24.2319 25.1926 24.315C25.1069 24.2396 25.0306 24.1736 24.9578 24.1007C24.3042 23.4609 23.6558 22.8194 23.0126 22.1761C22.6038 21.7699 22.2859 21.7656 21.8857 22.165C20.7255 23.3224 19.5669 24.4812 18.4101 25.6415C18.0724 25.98 18.0433 26.3476 18.3244 26.6295C18.6054 26.9115 18.9902 26.8737 19.3158 26.5498C20.2721 25.5975 21.2268 24.6437 22.1796 23.6886C22.2653 23.6029 22.351 23.5292 22.4539 23.4315L24.3648 25.3467C25.0966 26.0785 25.2491 26.0794 25.9732 25.3553C27.5157 23.8128 29.0599 22.2675 30.6058 20.7193C30.7015 20.6052 30.7913 20.4862 30.8748 20.3629C31.1636 20.6928 31.3993 20.9627 31.6375 21.2326C31.8466 21.4674 32.084 21.6388 32.4242 21.5394C32.7643 21.44 32.8526 21.1641 32.9152 20.8539C33.2511 19.1646 33.5916 17.4767 33.9366 15.7903C33.9537 15.7313 33.9761 15.6739 34.0035 15.6189V15.235C33.7352 14.774 33.5579 14.6909 33.0334 14.7963ZM18.0116 2.38121C18.444 2.38706 18.8567 2.56302 19.1603 2.87096C19.4639 3.1789 19.634 3.59405 19.6337 4.0265C19.6351 4.24366 19.5932 4.45892 19.5104 4.65969C19.4276 4.86045 19.3056 5.04268 19.1515 5.19573C18.9974 5.34877 18.8143 5.46955 18.613 5.551C18.4117 5.63244 18.1962 5.67292 17.979 5.67007C17.542 5.6678 17.1237 5.49219 16.816 5.18178C16.5083 4.87137 16.3364 4.45155 16.338 4.0145C16.3455 3.57666 16.5254 3.15945 16.8388 2.8536C17.1522 2.54775 17.5737 2.37798 18.0116 2.38121ZM7.52457 18.5359C7.37633 18.6833 7.2555 18.6567 7.11582 18.517C5.58765 16.9849 4.05775 15.4553 2.52615 13.9282C2.39504 13.7971 2.32991 13.678 2.48844 13.522C2.8912 13.1236 3.29052 12.7217 3.71041 12.3018C4.13373 12.7243 4.54506 13.1279 4.94524 13.5426C4.96388 13.5769 4.97477 13.6148 4.97714 13.6538C4.97951 13.6927 4.9733 13.7317 4.95895 13.768C4.49964 15.0062 5.94784 16.3687 7.09268 15.9249C7.13913 15.9101 7.18837 15.9062 7.23654 15.9137C7.28471 15.9211 7.33051 15.9396 7.37033 15.9677C7.82707 16.403 8.26924 16.8529 8.75083 17.3328C8.31808 17.7561 7.91961 18.1434 7.52457 18.5359ZM6.20149 14.3455C6.23919 14.1313 6.40886 13.9402 6.53226 13.726L7.15781 14.3173C6.94272 14.4569 6.76191 14.636 6.55111 14.684C6.45771 14.7055 6.1852 14.4424 6.20149 14.3455ZM10.7715 15.2942C10.391 15.6506 10.0354 16.0337 9.68659 16.3893L8.27952 14.978C8.85709 14.2616 8.8528 14.175 8.17583 13.4955C7.85877 13.1776 7.54 12.8605 7.22294 12.5426C6.7482 12.0687 6.48855 12.0636 6.00097 12.5186C5.96326 12.5529 5.92127 12.5829 5.89985 12.5991L4.65474 11.3498C5.03693 10.9693 5.43797 10.5708 5.83815 10.1715C5.98897 10.0215 6.11579 10.0695 6.24947 10.2032C6.98871 10.9459 7.72966 11.6885 8.47233 12.4312C9.23585 13.1947 9.99336 13.9642 10.7672 14.7175C10.9865 14.9308 10.9994 15.0799 10.7715 15.2942ZM11.6344 13.7517L10.8923 12.9873L11.9326 12.5914C11.8272 13.0002 11.7338 13.3627 11.6378 13.7491L11.6344 13.7517ZM12.3927 10.8305C12.3769 10.8689 12.3536 10.9039 12.3242 10.9333C12.2948 10.9627 12.2598 10.986 12.2214 11.0018C11.523 11.2966 10.8254 11.5923 10.1176 11.8639C10.0547 11.8885 9.98742 11.9 9.91991 11.8977C9.85239 11.8954 9.78605 11.8794 9.72494 11.8506C9.66383 11.8218 9.60923 11.7808 9.56448 11.7302C9.51972 11.6796 9.48575 11.6204 9.46465 11.5563C9.37895 11.2992 9.51435 11.0207 9.81341 10.929C10.8479 10.6163 11.8295 10.1498 12.7252 9.54507C12.6027 10.0267 12.5059 10.4294 12.3927 10.8279V10.8305ZM18.1573 10.5682C17.8273 11.4946 17.5094 12.426 17.1727 13.3498C17.1392 13.4432 17.0124 13.5675 16.9284 13.5683C15.643 13.582 14.3577 13.5777 13.0123 13.5777C13.2051 12.8357 13.3842 12.1441 13.5642 11.4526C13.8144 10.4903 14.0569 9.52536 14.3191 8.56647C14.7681 6.92118 16.6122 6.4293 17.8325 7.62385C19.0527 8.8184 20.4667 9.25201 22.0914 8.66501C22.6415 8.46706 23.13 8.08316 23.6261 7.75411C23.9689 7.52702 24.2525 7.49703 24.4445 7.75411C24.6364 8.01118 24.567 8.27854 24.2603 8.53048C22.7238 9.79272 20.9705 10.312 18.9945 10.0558C18.554 9.9941 18.3106 10.1329 18.1573 10.5657V10.5682Z" fill="#FF293E"/>
    <path d="M16.967 27.3761C16.8838 27.3755 16.8014 27.3913 16.7244 27.4227C16.6474 27.454 16.5773 27.5002 16.5182 27.5586C16.4591 27.617 16.412 27.6865 16.3798 27.7631C16.3475 27.8397 16.3307 27.9219 16.3303 28.0051C16.3327 28.1727 16.3991 28.3332 16.5158 28.4536C16.6326 28.574 16.7909 28.6453 16.9584 28.6529C17.1317 28.6522 17.2976 28.583 17.42 28.4603C17.5423 28.3376 17.6111 28.1715 17.6114 27.9982C17.6099 27.915 17.5921 27.833 17.5589 27.7567C17.5257 27.6804 17.4779 27.6114 17.418 27.5537C17.3582 27.4959 17.2876 27.4505 17.2102 27.42C17.1328 27.3895 17.0501 27.3746 16.967 27.3761Z" fill="#FF293E"/>
    <path d="M9.007 23.2044C9.17479 23.2 9.33432 23.1306 9.45196 23.0109C9.56961 22.8912 9.6362 22.7304 9.63769 22.5626C9.63211 22.395 9.56291 22.2358 9.44417 22.1174C9.32543 21.9989 9.16605 21.9302 8.99843 21.925C8.9126 21.9255 8.82771 21.9431 8.74878 21.9768C8.66985 22.0105 8.59845 22.0597 8.53881 22.1214C8.47916 22.1831 8.43246 22.2561 8.40146 22.3362C8.37047 22.4162 8.35579 22.5017 8.35831 22.5874C8.36257 22.7553 8.4333 22.9145 8.55494 23.0302C8.67658 23.1459 8.83917 23.2086 9.007 23.2044Z" fill="#FF293E"/>
</svg>
