<svg width="30" height="30" viewBox="0 0 30 30" fill="none" xmlns="http://www.w3.org/2000/svg">
    <path d="M15 2.99976C8.37281 2.99976 3 8.37257 3 14.9998C3 21.6269 8.37281 26.9998 15 26.9998C21.6272 26.9998 27 21.6269 27 14.9998C27 8.37257 21.6244 3.00679 15 2.99976ZM23.6569 9.9996H20.4309C19.7078 8.32381 18.7551 6.75676 17.6002 5.34351C20.1536 6.03698 22.3302 7.71024 23.6569 9.9996V9.9996ZM19.5 14.9998C19.493 16.0178 19.3336 17.029 19.027 17.9998H10.973C10.6664 17.029 10.507 16.0178 10.5 14.9998C10.507 13.9818 10.6664 12.9705 10.973 11.9998H19.027C19.3336 12.9705 19.493 13.9818 19.5 14.9998ZM11.7741 19.9999H18.2259C17.3765 21.6761 16.29 23.2212 15 24.5876C13.71 23.2212 12.6235 21.6761 11.7741 19.9999V19.9999ZM11.7741 9.9996C12.6235 8.3234 13.71 6.77831 15 5.41194C16.29 6.77831 17.3765 8.3234 18.2259 9.9996H11.7741ZM12.3998 5.34351C11.245 6.75753 10.2923 8.32518 9.56906 10.0015H6.34312C7.6694 7.7114 9.84604 6.03744 12.3998 5.34351V5.34351ZM5.46234 11.9998H8.89219C8.36952 13.9656 8.36952 16.0339 8.89219 17.9998H5.46C4.84687 16.0467 4.84687 13.9528 5.46 11.9998H5.46234ZM6.34312 19.9999H9.56906C10.2922 21.6757 11.2449 23.2428 12.3998 24.656C9.84636 23.9625 7.66977 22.2893 6.34312 19.9999V19.9999ZM17.6002 24.656C18.755 23.242 19.7077 21.6743 20.4309 19.998H23.6569C22.3306 22.2881 20.154 23.9621 17.6002 24.656V24.656ZM24.5377 17.9998H21.1078C21.6305 16.0339 21.6305 13.9656 21.1078 11.9998H24.54C25.1531 13.9528 25.1531 16.0467 24.54 17.9998H24.5377Z" fill="#FF293E"/>
</svg>
