<svg width="24" height="24" viewBox="0 0 24 24" fill="none" xmlns="http://www.w3.org/2000/svg">
    <path d="M20.25 3.21766H17.5V1.36206H15.6665V3.21766H8.33348V1.36206H6.5V3.21766H3.75C3.02065 3.21766 2.32118 3.51089 1.80546 4.03283C1.28973 4.55478 1 5.26269 1 6.00084L1 23.6275H23V6.00084C23 5.26269 22.7103 4.55478 22.1945 4.03283C21.6788 3.51089 20.9793 3.21766 20.25 3.21766ZM2.83348 6.00084C2.83342 5.87899 2.85709 5.75833 2.90312 5.64574C2.94915 5.53315 3.01666 5.43084 3.10177 5.34466C3.18688 5.25848 3.28794 5.19011 3.39916 5.14347C3.51039 5.09683 3.6296 5.07282 3.75 5.07282H20.25C20.3704 5.07282 20.4896 5.09683 20.6008 5.14347C20.7121 5.19011 20.8131 5.25848 20.8982 5.34466C20.9833 5.43084 21.0508 5.53315 21.0969 5.64574C21.1429 5.75833 21.1666 5.87899 21.1665 6.00084V8.78402H2.83348V6.00084ZM2.83348 21.7719V10.6392H21.1665V21.7719H2.83348Z" fill="#55627E"/>
    <path d="M16.5835 13.4226H14.75V15.2782H16.5835V13.4226Z" fill="#55627E"/>
    <path d="M12.917 13.4226H11.0835V15.2782H12.917V13.4226Z" fill="#55627E"/>
    <path d="M9.25 13.4226H7.41652V15.2782H9.25V13.4226Z" fill="#55627E"/>
    <path d="M16.5835 17.1333H14.75V18.9889H16.5835V17.1333Z" fill="#55627E"/>
    <path d="M12.917 17.1333H11.0835V18.9889H12.917V17.1333Z" fill="#55627E"/>
    <path d="M9.25 17.1333H7.41652V18.9889H9.25V17.1333Z" fill="#55627E"/>
</svg>
