<svg width="25" height="24" viewBox="0 0 25 24" fill="none" xmlns="http://www.w3.org/2000/svg">
    <path d="M22.9815 6.64392C22.676 6.48943 22.3332 6.42385 21.9922 6.45463C21.6512 6.48541 21.3258 6.61132 21.0528 6.81803C21.0167 6.8446 20.9825 6.87369 20.9505 6.90508L19.3192 8.55127C19.1233 6.16948 17.1454 4.28564 14.7145 4.28564H6.35732C5.12602 4.28668 3.94546 4.77637 3.07491 5.64716C2.20437 6.51794 1.71502 7.69864 1.71432 8.92995L1.71432 14.5014C1.71571 15.7324 2.20532 16.9125 3.07576 17.7829C3.94619 18.6534 5.12635 19.143 6.35732 19.1444H14.7145C17.1554 19.1444 19.1416 17.2436 19.3218 14.8478L20.9532 16.4766C20.9847 16.5075 21.018 16.5366 21.0528 16.5637C21.3267 16.7687 21.6523 16.8934 21.993 16.9238C22.3338 16.9543 22.6763 16.8893 22.9822 16.7361C23.2881 16.583 23.5453 16.3477 23.7251 16.0566C23.9048 15.7656 24 15.4302 24 15.0881V8.29315C24.0014 7.95065 23.9066 7.61463 23.7266 7.32326C23.5465 7.03189 23.2884 6.79684 22.9815 6.64479V6.64392ZM14.7145 17.2871H6.35732C5.61876 17.2863 4.91067 16.9925 4.38842 16.4703C3.86617 15.948 3.57242 15.2399 3.57161 14.5014V8.92995C3.57242 8.19138 3.86617 7.48329 4.38842 6.96104C4.91067 6.4388 5.61876 6.14504 6.35732 6.14424H14.7145C15.453 6.14516 16.161 6.43895 16.6832 6.96117C17.2055 7.48339 17.4993 8.19142 17.5002 8.92995V14.5014C17.4993 15.2399 17.2055 15.9479 16.6832 16.4702C16.161 16.9924 15.453 17.2862 14.7145 17.2871ZM19.357 12.2571V11.1529L22.1427 8.34103L22.1662 15.0624L19.357 12.2563V12.2571Z" fill="#55627E"/>
</svg>
