<svg width="25" height="24" viewBox="0 0 25 24" fill="none" xmlns="http://www.w3.org/2000/svg">
    <path d="M23.9143 11.9847C23.9143 10.8515 23.5779 9.76523 22.9138 8.75503C22.3179 7.8487 21.4825 7.04623 20.4318 6.36927C18.4027 5.06417 15.7359 4.34455 12.923 4.34455C11.9972 4.34377 11.0731 4.42361 10.161 4.58319C9.58852 4.04613 8.95013 3.5851 8.26141 3.21133C4.57268 1.41103 1.51428 3.16929 1.51428 3.16929C1.51428 3.16929 4.35786 5.52229 3.89569 7.58472C2.62336 8.85581 1.93164 10.389 1.93164 11.9847V12.0156C1.93164 13.6113 2.62152 15.1445 3.89569 16.4156C4.35786 18.478 1.51428 20.831 1.51428 20.831C1.51428 20.831 4.57268 22.5893 8.26141 20.789C8.94917 20.4156 9.58672 19.9552 10.1586 19.419C11.0707 19.5783 11.9948 19.658 12.9205 19.657C15.7334 19.657 18.4002 18.9386 20.4293 17.6329C21.4801 16.9565 22.3154 16.1541 22.9114 15.2471C23.5755 14.2369 23.9118 13.1501 23.9118 12.0175V11.9865L23.9143 11.9847ZM12.923 18.0836C11.8131 18.086 10.7068 17.958 9.62643 17.7021C8.58302 18.9658 6.28877 20.7228 4.06018 20.1553C4.78504 19.3707 5.85913 18.0452 5.62897 15.8623C4.29341 14.8156 3.49122 13.4753 3.49122 12.015C3.49122 8.66354 7.71393 5.94701 12.923 5.94701C18.132 5.94701 22.3541 8.66168 22.3541 12.015C22.3541 15.3683 18.1314 18.0836 12.923 18.0836Z" fill="#55627E"/>
    <path d="M13.1241 13.4551C13.807 13.3435 14.2708 12.6953 14.1599 12.0074C14.0491 11.3195 13.4056 10.8524 12.7227 10.9641C12.0398 11.0757 11.576 11.7239 11.6869 12.4118C11.7977 13.0997 12.4412 13.5668 13.1241 13.4551Z" fill="#55627E"/>
    <path d="M17.4802 13.4549C18.1631 13.3432 18.6268 12.6951 18.516 12.0072C18.4051 11.3193 17.7617 10.8522 17.0788 10.9638C16.3959 11.0755 15.9321 11.7237 16.043 12.4115C16.1538 13.0994 16.7973 13.5665 17.4802 13.4549Z" fill="#55627E"/>
    <path d="M9.63204 12.8748C9.99579 12.2821 9.81359 11.5045 9.22509 11.1381C8.63659 10.7717 7.86463 10.9552 7.50088 11.548C7.13713 12.1408 7.31933 12.9184 7.90783 13.2848C8.49633 13.6512 9.26829 13.4676 9.63204 12.8748Z" fill="#55627E"/>
</svg>
