<svg width="25" height="24" viewBox="0 0 25 24" fill="none" xmlns="http://www.w3.org/2000/svg">
<path d="M17.7183 7.1999C17.5691 7.17247 17.4285 7.11002 17.3081 7.01769C17.1877 6.92536 17.0909 6.80578 17.0258 6.66878C15.5785 3.61503 12.2268 1.9079 8.87425 2.52565C7.37871 2.80389 6.00489 3.53529 4.93906 4.62069C3.87323 5.70608 3.16694 7.09298 2.91594 8.59334C2.76496 9.48701 2.77533 10.4005 2.94657 11.2905C3.00257 11.5793 2.87832 11.9 2.62369 12.1314C1.8569 12.8283 1.31895 13.7408 1.08056 14.7492C0.842164 15.7575 0.914495 16.8144 1.28804 17.7808C1.66158 18.7473 2.31885 19.5781 3.17343 20.1639C4.028 20.7498 5.03987 21.0634 6.076 21.0634H16.3437C20.2038 21.0634 23.3437 17.9239 23.3437 14.0634C23.3437 10.7362 20.9777 7.84959 17.7183 7.1999ZM16.3437 19.197H6.07688C5.41737 19.1971 4.77327 18.9976 4.2293 18.6247C3.68533 18.2519 3.26695 17.7231 3.0292 17.1079C2.79145 16.4927 2.74545 15.82 2.89727 15.1782C3.04908 14.5364 3.39159 13.9556 3.87975 13.5121C4.61344 12.8445 4.95775 11.8571 4.77882 10.9331C4.6497 10.2613 4.64214 9.57184 4.7565 8.8974C5.13232 6.63728 6.96369 4.77309 9.20938 4.35965C9.56188 4.29535 9.91944 4.26284 10.2778 4.26253C11.3393 4.2572 12.3801 4.55628 13.2768 5.12434C14.1736 5.6924 14.8887 6.50563 15.3374 7.46765C15.5266 7.86772 15.8074 8.21758 16.1571 8.48886C16.5068 8.76015 16.9154 8.94522 17.3499 9.02909C18.5978 9.2804 19.7079 9.98628 20.4647 11.0098C21.2215 12.0333 21.5712 13.3014 21.4458 14.5682C21.3204 15.8349 20.729 17.0099 19.7862 17.8653C18.8435 18.7206 17.6166 19.1952 16.3437 19.197Z" fill="#55627E"/>
<path d="M12.4062 14.8118C12.4724 14.8778 12.5249 14.9562 12.5607 15.0425C12.5965 15.1289 12.615 15.2214 12.615 15.3149C12.615 15.4084 12.5965 15.501 12.5607 15.5873C12.5249 15.6736 12.4724 15.752 12.4062 15.818L10.4812 17.743C10.2161 18.0082 9.85682 18.1575 9.48192 18.1582H9.47579H9.46923C9.09434 18.1575 8.73503 18.0082 8.46998 17.743L6.54498 15.818C6.41154 15.6846 6.33658 15.5036 6.33658 15.3149C6.33658 15.1262 6.41154 14.9452 6.54498 14.8118C6.67842 14.6784 6.8594 14.6034 7.0481 14.6034C7.23681 14.6034 7.41779 14.6784 7.55123 14.8118L8.76485 16.0254V10.2824C8.76946 10.0968 8.8464 9.92039 8.97927 9.79078C9.11213 9.66117 9.2904 9.58862 9.47601 9.58862C9.66162 9.58862 9.83989 9.66117 9.97275 9.79078C10.1056 9.92039 10.1826 10.0968 10.1872 10.2824V16.0254L11.3999 14.8118C11.4659 14.7456 11.5443 14.6931 11.6307 14.6572C11.717 14.6214 11.8096 14.603 11.903 14.603C11.9965 14.603 12.0891 14.6214 12.1754 14.6572C12.2617 14.6931 12.3402 14.7456 12.4062 14.8118Z" fill="#55627E"/>
<path d="M17.7389 12.9185C17.8052 12.8525 17.8578 12.7741 17.8937 12.6878C17.9296 12.6014 17.9481 12.5088 17.9481 12.4153C17.9481 12.3218 17.9296 12.2292 17.8937 12.1429C17.8578 12.0565 17.8052 11.9782 17.7389 11.9122L15.8139 9.98721C15.549 9.72211 15.1898 9.57281 14.8151 9.57202H14.8085H14.8024C14.4275 9.57274 14.0682 9.72204 13.8031 9.98721L11.8781 11.9122C11.7447 12.0456 11.6697 12.2266 11.6697 12.4153C11.6697 12.604 11.7447 12.785 11.8781 12.9185C12.0116 13.0519 12.1926 13.1269 12.3813 13.1269C12.57 13.1269 12.751 13.0519 12.8844 12.9185L14.0985 11.7048V17.4479C14.1031 17.6335 14.18 17.8099 14.3129 17.9395C14.4457 18.0691 14.624 18.1416 14.8096 18.1416C14.9952 18.1416 15.1735 18.0691 15.3063 17.9395C15.4392 17.8099 15.5162 17.6335 15.5208 17.4479V11.7048L16.7344 12.9185C16.8003 12.9848 16.8787 13.0374 16.9651 13.0733C17.0514 13.1092 17.144 13.1277 17.2375 13.1277C17.331 13.1277 17.4236 13.1092 17.51 13.0733C17.5963 13.0374 17.6747 12.9848 17.7406 12.9185H17.7389Z" fill="#55627E"/>
</svg>
