<svg width="24" height="24" viewBox="0 0 24 24" fill="none" xmlns="http://www.w3.org/2000/svg">
    <path d="M14.3357 12.9331C15.1092 12.9331 15.7363 12.3063 15.7363 11.5331C15.7363 10.7599 15.1092 10.1331 14.3357 10.1331C13.5621 10.1331 12.9351 10.7599 12.9351 11.5331C12.9351 12.3063 13.5621 12.9331 14.3357 12.9331Z" fill="#55627E"/>
    <path d="M23.1924 11.311C23.1512 10.7072 22.943 10.1268 22.5911 9.63439C22.2391 9.14199 21.7572 8.75701 21.1992 8.52238C20.8243 6.35719 19.6953 4.39433 18.0119 2.98107C16.3286 1.56781 14.1994 0.795248 12.001 0.800071C5.55818 0.800071 3.71331 5.16238 2.49477 8.04944C2.24753 8.86608 1.82748 9.62002 1.2631 10.2601C1.09455 10.3585 0.961062 10.5072 0.881384 10.6852C0.801706 10.8633 0.779841 11.0619 0.81886 11.253C0.857879 11.4442 0.955822 11.6183 1.09893 11.751C1.24204 11.8836 1.42313 11.9681 1.61675 11.9926C3.92485 12.1864 6.24619 11.8347 8.39312 10.9658C8.27468 11.2282 8.24003 11.5207 8.29389 11.8035C8.34775 12.0862 8.4875 12.3455 8.69412 12.5461C8.90073 12.7466 9.16416 12.8786 9.44853 12.924C9.7329 12.9695 10.0244 12.9263 10.2833 12.8002C10.5421 12.6741 10.7559 12.4713 10.8953 12.2195C11.0347 11.9676 11.0931 11.6789 11.0625 11.3927C11.0318 11.1065 10.9137 10.8366 10.7241 10.62C10.5345 10.4033 10.2827 10.2503 10.003 10.1818C11.8372 9.15456 13.4182 7.73013 14.6303 6.01288C14.7054 5.91598 14.7607 5.80524 14.7931 5.68698C14.8254 5.56871 14.8341 5.44523 14.8187 5.3236C14.8033 5.20197 14.7641 5.08456 14.7033 4.97808C14.6425 4.87159 14.5613 4.77813 14.4644 4.703C14.3674 4.62788 14.2566 4.57259 14.1383 4.54026C14.02 4.50794 13.8965 4.49923 13.7748 4.51463C13.6531 4.53002 13.5356 4.56923 13.4291 4.63C13.3226 4.69077 13.2291 4.77192 13.1539 4.86882C13.139 4.88763 13.1255 4.90688 13.1123 4.927C12.0234 6.45952 10.602 7.72612 8.95426 8.63208C7.30656 9.53803 5.47526 10.0599 3.59732 10.1586C3.80916 9.736 4.00612 9.26613 4.21534 8.77438C5.36385 6.05269 6.79248 2.66688 12.001 2.66688C13.8459 2.66254 15.6268 3.34259 16.9989 4.57537C18.371 5.80815 19.2366 7.50595 19.4283 9.34006C19.4496 9.54056 19.5353 9.72875 19.6726 9.87646C19.8099 10.0242 19.9914 10.1235 20.1898 10.1595C20.5299 10.2261 20.8332 10.4164 21.0411 10.6936C21.249 10.9707 21.3467 11.3151 21.3153 11.66C21.2839 12.005 21.1258 12.3261 20.8713 12.5613C20.6169 12.7964 20.2842 12.929 19.9377 12.9332C19.8588 12.9311 19.7803 12.9227 19.7027 12.9083C19.4849 12.8686 19.2601 12.908 19.0688 13.0194C18.8775 13.1309 18.7324 13.307 18.6597 13.516C17.8044 15.9397 14.9257 18.5332 12.001 18.5332C9.29302 18.5332 6.77191 16.4026 5.68336 14.2969C5.56685 14.0817 5.37046 13.9209 5.13648 13.8489C4.90249 13.777 4.64961 13.7998 4.43224 13.9123C4.21488 14.0249 4.05041 14.2182 3.97424 14.4508C3.89807 14.6833 3.91627 14.9365 4.02494 15.1557C4.9928 16.9606 6.46689 18.4436 8.26619 19.4227V22.2664C8.26619 22.5139 8.36455 22.7513 8.53964 22.9263C8.71472 23.1013 8.95219 23.1996 9.19979 23.1996C9.4474 23.1996 9.68486 23.1013 9.85995 22.9263C10.035 22.7513 10.1334 22.5139 10.1334 22.2664V20.1555C11.3568 20.4841 12.6453 20.4841 13.8687 20.1555V22.2669C13.8687 22.5144 13.967 22.7517 14.1421 22.9267C14.3172 23.1017 14.5547 23.2 14.8023 23.2C15.0499 23.2 15.2873 23.1017 15.4624 22.9267C15.6375 22.7517 15.7359 22.5144 15.7359 22.2669V19.4231C17.6631 18.3876 19.2106 16.7658 20.1544 14.7926C21.0191 14.7336 21.825 14.3336 22.3948 13.6807C22.9645 13.0278 23.2514 12.1754 23.1924 11.311Z" fill="#55627E"/>
</svg>
