<svg width="25" height="24" viewBox="0 0 25 24" fill="none" xmlns="http://www.w3.org/2000/svg">
    <path d="M15.8949 15.7333C15.895 15.8558 15.8709 15.9772 15.824 16.0905C15.7771 16.2038 15.7084 16.3067 15.6218 16.3934C15.5351 16.4801 15.4322 16.5489 15.319 16.5958C15.2057 16.6427 15.0843 16.6669 14.9617 16.6669H13.0949V18.5333C13.0949 18.7808 12.9966 19.0181 12.8216 19.1931C12.6466 19.3681 12.4092 19.4664 12.1617 19.4664C11.9142 19.4664 11.6769 19.3681 11.5019 19.1931C11.3269 19.0181 11.2286 18.7808 11.2286 18.5333V16.6669H9.36174C9.11768 16.6616 8.88541 16.5609 8.71467 16.3865C8.54393 16.212 8.44832 15.9776 8.44832 15.7335C8.44832 15.4894 8.54393 15.255 8.71467 15.0805C8.88541 14.906 9.11768 14.8054 9.36174 14.8001H11.2286V12.9333C11.2286 12.6858 11.3269 12.4484 11.5019 12.2734C11.6769 12.0984 11.9142 12.0001 12.1617 12.0001C12.4092 12.0001 12.6466 12.0984 12.8216 12.2734C12.9966 12.4484 13.0949 12.6858 13.0949 12.9333V14.8001H14.9617C15.2092 14.8001 15.4466 14.8984 15.6216 15.0734C15.7966 15.2484 15.8949 15.4858 15.8949 15.7333ZM21.4949 10.5861V18.5333C21.4935 19.7705 21.0015 20.9566 20.1267 21.8315C19.2519 22.7064 18.0658 23.1986 16.8286 23.2001H7.49493C6.25771 23.1986 5.07161 22.7064 4.19681 21.8315C3.32201 20.9566 2.82994 19.7705 2.82855 18.5333V5.46688C2.82994 4.22967 3.32201 3.04352 4.19681 2.16864C5.07161 1.29375 6.25771 0.801576 7.49493 0.800071H11.7089C12.5672 0.797825 13.4175 0.965752 14.2105 1.29414C15.0035 1.62253 15.7235 2.10487 16.3289 2.71326L19.5809 5.96695C20.1896 6.57198 20.6722 7.2918 21.0008 8.08469C21.3294 8.87759 21.4973 9.7278 21.4949 10.5861ZM15.0094 4.0332C14.7157 3.74873 14.3859 3.50398 14.0286 3.3052V7.33326C14.0285 7.45584 14.0526 7.57724 14.0995 7.69051C14.1463 7.80378 14.2151 7.9067 14.3017 7.9934C14.3884 8.08011 14.4913 8.14888 14.6045 8.19581C14.7178 8.24273 14.8392 8.26688 14.9617 8.26688H18.9898C18.7912 7.90946 18.5461 7.57992 18.2609 7.28688L15.0094 4.0332ZM19.6286 10.5861C19.6286 10.4321 19.5984 10.2846 19.5848 10.1333H14.9617C14.2191 10.1333 13.5069 9.83826 12.9818 9.31316C12.4567 8.78806 12.1617 8.07586 12.1617 7.33326V2.71063C12.0104 2.69663 11.8621 2.66688 11.7089 2.66688H7.49493C6.75232 2.66688 6.04013 2.96188 5.51503 3.48698C4.98993 4.01209 4.69493 4.72428 4.69493 5.46688V18.5333C4.69493 19.2759 4.98993 19.9881 5.51503 20.5132C6.04013 21.0383 6.75232 21.3333 7.49493 21.3333H16.8286C17.5712 21.3333 18.2833 21.0383 18.8085 20.5132C19.3336 19.9881 19.6286 19.2759 19.6286 18.5333V10.5861Z" fill="#55627E"/>
</svg>
