<svg width="25" height="24" viewBox="0 0 25 24" fill="none" xmlns="http://www.w3.org/2000/svg">
    <path d="M21.1425 21.6001C21.0075 21.6003 20.8738 21.5738 20.7491 21.5221C20.6243 21.4703 20.5111 21.3944 20.4158 21.2988L16.507 17.3899L16.3743 17.489C14.7607 18.6977 12.7654 19.2842 10.7544 19.1407C8.74343 18.9973 6.85157 18.1336 5.4259 16.7081C4.00023 15.2825 3.13634 13.3908 2.99271 11.3798C2.84907 9.36879 3.43532 7.37345 4.64391 5.75976C5.43508 4.69552 6.47008 3.83667 7.66198 3.25535C8.81385 2.69382 10.0783 2.40139 11.3597 2.40015C13.3742 2.40182 15.3207 3.12905 16.8427 4.4487C18.3648 5.76834 19.3606 7.59208 19.6478 9.58599C19.8078 10.6751 19.7501 11.7852 19.4781 12.8519C19.2061 13.9186 18.7252 14.9208 18.0633 15.8004L17.9638 15.9331L21.8122 19.7842L21.87 19.8438C22.0138 19.9877 22.1118 20.1709 22.1515 20.3704C22.1912 20.5699 22.1709 20.7767 22.0931 20.9647C22.0153 21.1526 21.8836 21.3133 21.7146 21.4264C21.5455 21.5395 21.3467 21.6 21.1433 21.6001H21.1425ZM11.3865 4.52171C7.91824 4.52171 5.09637 7.34357 5.09637 10.8118C5.09637 14.28 7.91633 17.1015 11.3865 17.1015C13.0538 17.0995 14.6523 16.4361 15.8311 15.257C17.0099 14.0778 17.6728 12.4792 17.6743 10.8118C17.6743 7.34357 14.8528 4.52171 11.3865 4.52171Z" fill="#55627E"/>
</svg>
