<svg width="100" height="44" viewBox="0 0 100 44" fill="none" xmlns="http://www.w3.org/2000/svg">
    <g clip-path="url(#clip0_354_1070)">
        <path d="M0 0V7.23533H13.0907V31.3764H21.4247V7.23533H30.6969L37.9505 0H0Z" fill="#293240"/>
        <path d="M91.6659 0V23.0017L71.9278 0L62.1958 9.71566V31.3764H70.8288V11.978L88.5298 31.3764H99.9999V0H91.6659Z" fill="#293240"/>
        <path d="M44.3917 7.22299H61.2515L68.4928 0H41.3299L34.0144 7.29703V31.3764H42.3072V19.7707H50.5608L57.4082 12.9426H42.3072V9.32079L44.3917 7.22299Z" fill="#293240"/>
        <path d="M3.57526 38.8812H1.15876V42.9945H0V37.9248H3.58351L3.57526 38.8812Z" fill="#293240"/>
        <path d="M9.05774 38.1491C9.28746 38.2595 9.49145 38.4166 9.65654 38.6105C9.82163 38.8043 9.94416 39.0305 10.0162 39.2744C10.0883 39.5184 10.1083 39.7747 10.075 40.0269C10.0416 40.279 9.95571 40.5214 9.82269 40.7384C9.63736 41.0225 9.3709 41.2445 9.05774 41.376C8.68747 41.5317 8.28833 41.6074 7.88661 41.5981H6.85568V42.9966H5.68042V37.9249H7.87836C8.283 37.9151 8.68507 37.9915 9.05774 38.1491ZM8.62681 40.4114C8.71934 40.3317 8.79221 40.2318 8.83976 40.1194C8.88732 40.0071 8.90829 39.8853 8.90104 39.7636C8.9088 39.6406 8.88809 39.5174 8.84054 39.4037C8.793 39.2899 8.71987 39.1886 8.62681 39.1075C8.3929 38.9402 8.1078 38.8594 7.82063 38.8792H6.86393V40.6397H7.82063C8.10755 40.6601 8.39263 40.5801 8.62681 40.4135V40.4114Z" fill="#293240"/>
        <path d="M16.8186 37.9248L14.6578 41.9374C14.4816 42.2857 14.2243 42.5869 13.9073 42.8155C13.6267 43.0089 13.2937 43.1123 12.9526 43.1117C12.6691 43.1078 12.3891 43.0491 12.1279 42.9389L12.4104 42.0464C12.5738 42.1027 12.7448 42.1346 12.9176 42.141C13.0554 42.1432 13.1911 42.1068 13.3093 42.0361C13.4391 41.9514 13.5482 41.839 13.6289 41.707L13.6722 41.6494L11.6702 37.9248H12.9258L14.2743 40.6499L15.6681 37.9248H16.8186Z" fill="#293240"/>
        <path d="M23.5279 37.9248V42.9965H22.3589V38.8832H20.0681V42.9965H18.9011V37.9248H23.5279Z" fill="#293240"/>
        <path d="M30.7628 37.9248V42.9965H29.5875V38.8832H27.303V42.9965H26.136V37.9248H30.7628Z" fill="#293240"/>
        <path d="M36.8638 41.9167H34.5071L34.0576 43.0026H32.8535L35.1216 37.9309H36.2803L38.5484 43.0026H37.3112L36.8638 41.9167ZM36.4948 41.0241L35.6886 39.0826L34.8844 41.0241H36.4948Z" fill="#293240"/>
        <path d="M45.8516 40.9543H45.0392V42.9965H43.8701V37.9248H45.0392V39.9815H45.8763L47.2103 37.9248H48.4474L46.7876 40.3722L48.499 42.9965H47.165L45.8516 40.9543Z" fill="#293240"/>
        <path d="M51.4207 42.7393C51.0092 42.524 50.6653 42.1994 50.4269 41.8015C50.244 41.5008 50.1244 41.166 50.0754 40.8177C50.0265 40.4693 50.0492 40.1147 50.1422 39.7754C50.2352 39.4361 50.3965 39.1193 50.6163 38.8442C50.8361 38.5692 51.1098 38.3417 51.4207 38.1756C51.862 37.9525 52.3497 37.8362 52.8444 37.8362C53.3391 37.8362 53.8269 37.9525 54.2681 38.1756C54.6777 38.3947 55.0208 38.7192 55.262 39.1155C55.4983 39.5238 55.6227 39.987 55.6227 40.4585C55.6227 40.93 55.4983 41.3932 55.262 41.8015C55.0213 42.1976 54.678 42.5217 54.2681 42.7393C53.8273 42.9638 53.3394 43.0808 52.8444 43.0808C52.3495 43.0808 51.8616 42.9638 51.4207 42.7393ZM53.6578 41.8755C53.8964 41.7387 54.0932 41.5396 54.2269 41.2997C54.3636 41.0403 54.435 40.7516 54.435 40.4585C54.435 40.1654 54.3636 39.8767 54.2269 39.6173C54.0937 39.377 53.8969 39.1777 53.6578 39.0415C53.4084 38.9065 53.1292 38.8357 52.8455 38.8357C52.5617 38.8357 52.2825 38.9065 52.0331 39.0415C51.794 39.1777 51.5972 39.377 51.464 39.6173C51.3285 39.8771 51.2577 40.1657 51.2577 40.4585C51.2577 40.7514 51.3285 41.0399 51.464 41.2997C51.5978 41.5396 51.7945 41.7387 52.0331 41.8755C52.2825 42.0105 52.5617 42.0813 52.8455 42.0813C53.1292 42.0813 53.4084 42.0105 53.6578 41.8755Z" fill="#293240"/>
        <path d="M62.5257 42.9965V39.9609L61.0309 42.4597H60.5092L59.0144 40.0185V42.9965H57.9133V37.9248H58.8845L60.7834 41.0756L62.6556 37.9248H63.6267V42.9965H62.5257Z" fill="#293240"/>
        <path d="M70.8639 37.9248V42.9965H69.6969V38.8832H67.4041V42.9965H66.2371V37.9248H70.8639Z" fill="#293240"/>
        <path d="M76.9649 41.9167H74.6082L74.1587 43.0026H72.9546L75.2226 37.9309H76.3835L78.6515 43.0026H77.4144L76.9649 41.9167ZM76.5979 41.018L75.7917 39.0765L74.9876 41.018H76.5979Z" fill="#293240"/>
        <path d="M85.3898 37.9248V42.9965H84.2269V40.9172H81.9094V42.9965H80.7341V37.9248H81.9094V39.9239H84.2269V37.9248H85.3898Z" fill="#293240"/>
        <path d="M88.0061 37.9248H89.1752V41.2278L91.5979 37.9248H92.7009V42.9965H91.5401V39.7059L89.1174 42.9965H88.0082L88.0061 37.9248Z" fill="#293240"/>
        <path d="M95.3071 37.9248H96.4762V41.2278L98.8989 37.9248H99.9999V42.9965H98.8391V39.7058L96.4164 42.9965H95.3071V37.9248ZM96.2432 36.4851H97.0473C97.0576 36.8389 97.2535 37.0137 97.6494 37.0137C97.8083 37.0252 97.966 36.9783 98.0927 36.882C98.1457 36.8308 98.1873 36.7689 98.2146 36.7005C98.242 36.6321 98.2545 36.5587 98.2515 36.4851H99.0576C99.0652 36.6403 99.037 36.7952 98.9752 36.9378C98.9133 37.0804 98.8195 37.207 98.7009 37.3078C98.3931 37.5189 98.0219 37.6184 97.6494 37.5895C96.7216 37.595 96.2528 37.2282 96.2432 36.4892V36.4851Z" fill="#293240"/>
    </g>
    <defs>
        <clipPath id="clip0_354_1070">
            <rect width="100" height="43.1138" fill="white"/>
        </clipPath>
    </defs>
</svg>
